<svg width="1159" height="629" viewBox="0 0 1159 629" fill="none" xmlns="http://www.w3.org/2000/svg">
<path d="M1072.07 73.6488C1069.93 75.0946 1069.22 77.795 1070.5 79.6804C1071.77 81.5658 1074.54 81.9222 1076.68 80.4764C1078.82 79.0307 1079.53 76.3302 1078.26 74.4449C1076.99 72.5595 1074.22 72.2031 1072.07 73.6488Z" fill="#FF7F66"/>
<path d="M895.881 562.618C893.738 564.064 893.031 566.764 894.303 568.649C895.574 570.535 898.343 570.891 900.486 569.445C902.63 568 903.336 565.299 902.065 563.414C900.793 561.528 898.024 561.172 895.881 562.618Z" fill="#F4FF81"/>
<path d="M1065.56 281.86L1053.56 288.86V273.86L1065.56 281.86Z" fill="#A3FF66"/>
<path d="M16 381.001L19 400.001L0 388.001L16 381.001Z" fill="#82FF66"/>
<path d="M923.451 53.2841C931.878 48.8185 931.679 44.0723 922.853 39.0453C913.602 35.9561 913.54 32.469 922.668 28.5839C931.658 23.4396 931.459 18.6933 922.07 14.3451C912.819 11.2559 912.689 7.13923 921.679 1.99497" stroke="#FF81F5" stroke-width="3" stroke-linecap="round"/>
<path d="M1116 113.162L1156.05 105.403" stroke="#81F5FF" stroke-width="4" stroke-linecap="round"/>
<path d="M30 472.967L69.6169 463.246" stroke="#66FFA3" stroke-width="4" stroke-linecap="round"/>
<path d="M1069 532L1071 519L1081 521L1079 534L1069 532Z" fill="#FF81F5"/>
<path d="M62 267L50 265L52 250L64 252L62 267Z" fill="#FFFC66"/>
<path d="M1090.98 179.101C1094.43 173.169 1092.95 171.334 1086.54 173.597C1080.13 175.86 1078.65 174.025 1082.1 168.093C1085.55 162.16 1084.07 160.325 1077.66 162.588C1071.25 164.851 1069.77 163.017 1073.22 157.084" stroke="#66FFA6" stroke-width="4" stroke-linecap="round"/>
<path d="M960.235 627C966.941 622.119 966.568 618.702 959.117 616.75C951.666 614.798 951.294 611.381 958 606.5C964.705 601.619 964.333 598.202 956.882 596.25C949.431 594.298 949.058 590.881 955.764 586" stroke="#66FFA6" stroke-width="4" stroke-linecap="round"/>
<path d="M33.9089 367.373L35.5631 370.577L33.6239 374.075L37.2173 373.78L39.7462 377.469L40.8108 373.486L44.8891 372.316L41.8754 369.502L40.706 365.424L37.8921 368.438L33.9089 367.373Z" fill="#FF66DB"/>
<path d="M1001.41 52.5299C1000.92 54.0396 998.188 48.8722 997.866 48.0278C996.653 44.8455 995.995 40.6938 996.543 37.272C997.348 32.2448 995.134 48.4811 991.052 51.5245C987.697 54.0262 975.176 55.9831 979.36 56.1003C983.329 56.2115 986.828 55.0884 990.679 56.8968C993.852 58.3867 993.891 64.1432 994.552 67.1395C995.067 69.4719 995.012 69.1713 995.485 66.9317C996.084 64.1003 997.166 61.5734 998.39 58.9664C1000.29 54.9171 1006.67 53.5645 1010.56 52.2472C1014.11 51.0473 1002.72 53.8225 999.335 52.2316" stroke="#F4FF81" stroke-width="3" stroke-linecap="round" stroke-linejoin="round"/>
<path d="M1025.97 577.016C1025.5 577.553 1025.01 574.515 1024.99 574.053C1024.92 572.31 1025.25 570.287 1026.05 568.917C1027.22 566.904 1023.63 573.51 1021.21 573.751C1019.23 573.949 1012.99 571.41 1014.95 572.601C1016.82 573.73 1018.65 574.184 1020.2 576.035C1021.47 577.56 1020.58 580.126 1020.43 581.636C1020.31 582.812 1020.33 582.663 1020.9 581.798C1021.63 580.704 1022.54 579.876 1023.53 579.052C1025.06 577.771 1028.3 578.907 1030.35 579.381C1032.22 579.813 1026.39 577.947 1025.03 576.319" stroke="#F5F5F5" stroke-width="3" stroke-linecap="round" stroke-linejoin="round"/>
<path d="M1061.49 22.3065C1061.19 22.657 1060.73 20.5295 1060.69 20.2081C1060.56 18.9966 1060.7 17.6106 1061.17 16.6975C1061.87 15.3558 1059.74 19.7698 1058.12 19.8263C1056.79 19.8728 1052.45 17.8287 1053.84 18.7435C1055.15 19.6114 1056.41 20.0093 1057.54 21.3625C1058.47 22.4774 1057.99 24.2156 1057.95 25.255C1057.92 26.0641 1057.93 25.9622 1058.28 25.3886C1058.72 24.6635 1059.3 24.1317 1059.93 23.6055C1060.91 22.7883 1063.15 23.7232 1064.56 24.1456C1065.84 24.5303 1061.81 22.9706 1060.82 21.7803" stroke="#F5F5F5" stroke-width="3" stroke-linecap="round" stroke-linejoin="round"/>
</svg>
