<svg width="36" height="36" viewBox="0 0 36 36" fill="none" xmlns="http://www.w3.org/2000/svg">
<g id="Outline/General/Flask">
<g id="Icon">
<path d="M19.5 22.5C18.6716 22.5 18 23.1716 18 24C18 24.8284 18.6716 25.5 19.5 25.5C20.3284 25.5 21 24.8284 21 24C21 23.1716 20.3284 22.5 19.5 22.5Z" fill="#F4FF81"/>
<path d="M15 25.5C14.1716 25.5 13.5 26.1716 13.5 27C13.5 27.8284 14.1716 28.5 15 28.5C15.8284 28.5 16.5 27.8284 16.5 27C16.5 26.1716 15.8284 25.5 15 25.5Z" fill="#F4FF81"/>
<path fill-rule="evenodd" clip-rule="evenodd" d="M21.7397 4.87501L21.7353 4.875H14.2647L14.2603 4.87501H12.75C12.1287 4.87501 11.625 5.37869 11.625 6.00001C11.625 6.62133 12.1287 7.12501 12.75 7.12501H13.1397V14.7555C13.1397 16.9371 12.4836 19.0682 11.2566 20.872L6.61593 27.6943C5.43745 29.4268 6.52379 31.791 8.60597 32.0253C14.849 32.7276 21.1511 32.7276 27.3941 32.0253C29.4762 31.791 30.5626 29.4268 29.3841 27.6943L24.7434 20.872C23.5164 19.0682 22.8603 16.9371 22.8603 14.7555V7.12501H23.25C23.8713 7.12501 24.375 6.62133 24.375 6.00001C24.375 5.37869 23.8713 4.87501 23.25 4.87501H21.7397ZM8.8575 29.7894C14.9333 30.4729 21.0667 30.4729 27.1425 29.7894C27.5414 29.7445 27.7494 29.2916 27.5237 28.9598L22.883 22.1375C22.5526 21.6518 22.2565 21.1464 21.9958 20.625H14.0042C13.7435 21.1464 13.4474 21.6518 13.117 22.1375L8.47632 28.9598C8.25059 29.2916 8.45867 29.7445 8.8575 29.7894ZM14.8808 18.375H21.1192C20.7835 17.2046 20.6103 15.9867 20.6103 14.7555V7.125L15.3897 7.12501V14.7555C15.3897 15.9867 15.2166 17.2046 14.8808 18.375Z" fill="#F4FF81"/>
</g>
</g>
</svg>
