<svg width="932" height="486" viewBox="0 0 932 486" fill="none" xmlns="http://www.w3.org/2000/svg">
<path d="M55.4659 9H53.7045C53.6004 8.49337 53.4181 8.0483 53.1577 7.66477C52.902 7.28125 52.5895 6.95928 52.2202 6.69886C51.8556 6.43371 51.4508 6.23485 51.0057 6.10227C50.5606 5.9697 50.0966 5.90341 49.6136 5.90341C48.733 5.90341 47.9351 6.12595 47.2202 6.57102C46.5099 7.0161 45.9441 7.67188 45.5227 8.53835C45.1061 9.40483 44.8977 10.4678 44.8977 11.7273C44.8977 12.9867 45.1061 14.0497 45.5227 14.9162C45.9441 15.7827 46.5099 16.4384 47.2202 16.8835C47.9351 17.3286 48.733 17.5511 49.6136 17.5511C50.0966 17.5511 50.5606 17.4848 51.0057 17.3523C51.4508 17.2197 51.8556 17.0232 52.2202 16.7628C52.5895 16.4976 52.902 16.1733 53.1577 15.7898C53.4181 15.4015 53.6004 14.9564 53.7045 14.4545H55.4659C55.3333 15.1979 55.0919 15.8632 54.7415 16.4503C54.3911 17.0374 53.9555 17.5369 53.4347 17.9489C52.9138 18.3561 52.3291 18.6662 51.6804 18.8793C51.0365 19.0923 50.3475 19.1989 49.6136 19.1989C48.3731 19.1989 47.2699 18.8958 46.304 18.2898C45.3381 17.6837 44.5781 16.822 44.0241 15.7045C43.4702 14.5871 43.1932 13.2614 43.1932 11.7273C43.1932 10.1932 43.4702 8.86742 44.0241 7.75C44.5781 6.63258 45.3381 5.77083 46.304 5.16477C47.2699 4.55871 48.3731 4.25568 49.6136 4.25568C50.3475 4.25568 51.0365 4.36222 51.6804 4.57528C52.3291 4.78835 52.9138 5.10085 53.4347 5.51278C53.9555 5.91998 54.3911 6.41714 54.7415 7.00426C55.0919 7.58665 55.3333 8.25189 55.4659 9ZM62.5167 19.2273C61.5318 19.2273 60.6677 18.9929 59.9244 18.5241C59.1857 18.0554 58.6081 17.3996 58.1914 16.5568C57.7795 15.714 57.5735 14.7292 57.5735 13.6023C57.5735 12.4659 57.7795 11.474 58.1914 10.6264C58.6081 9.77888 59.1857 9.12074 59.9244 8.65199C60.6677 8.18324 61.5318 7.94886 62.5167 7.94886C63.5015 7.94886 64.3633 8.18324 65.1019 8.65199C65.8453 9.12074 66.4229 9.77888 66.8349 10.6264C67.2515 11.474 67.4599 12.4659 67.4599 13.6023C67.4599 14.7292 67.2515 15.714 66.8349 16.5568C66.4229 17.3996 65.8453 18.0554 65.1019 18.5241C64.3633 18.9929 63.5015 19.2273 62.5167 19.2273ZM62.5167 17.7216C63.2648 17.7216 63.8803 17.5298 64.3633 17.1463C64.8462 16.7628 65.2037 16.2585 65.4357 15.6335C65.6677 15.0085 65.7837 14.3314 65.7837 13.6023C65.7837 12.8731 65.6677 12.1937 65.4357 11.5639C65.2037 10.9342 64.8462 10.4252 64.3633 10.0369C63.8803 9.64867 63.2648 9.45455 62.5167 9.45455C61.7686 9.45455 61.1531 9.64867 60.6701 10.0369C60.1871 10.4252 59.8297 10.9342 59.5977 11.5639C59.3656 12.1937 59.2496 12.8731 59.2496 13.6023C59.2496 14.3314 59.3656 15.0085 59.5977 15.6335C59.8297 16.2585 60.1871 16.7628 60.6701 17.1463C61.1531 17.5298 61.7686 17.7216 62.5167 17.7216ZM71.6946 12.4375V19H70.0185V8.09091H71.6378V9.79545H71.7798C72.0355 9.24148 72.4238 8.7964 72.9446 8.46023C73.4654 8.11932 74.1378 7.94886 74.9616 7.94886C75.7003 7.94886 76.3466 8.10038 76.9006 8.40341C77.4545 8.7017 77.8854 9.15625 78.1932 9.76705C78.5009 10.3731 78.6548 11.1402 78.6548 12.0682V19H76.9787V12.1818C76.9787 11.3248 76.7562 10.6572 76.3111 10.179C75.866 9.69602 75.2552 9.45455 74.4787 9.45455C73.9437 9.45455 73.4654 9.57055 73.044 9.80256C72.6274 10.0346 72.2983 10.3731 72.0568 10.8182C71.8153 11.2633 71.6946 11.803 71.6946 12.4375ZM86.1211 23.3182C85.3114 23.3182 84.6154 23.214 84.033 23.0057C83.4506 22.8021 82.9653 22.5322 82.5771 22.196C82.1935 21.8646 81.8881 21.5095 81.6609 21.1307L82.9961 20.1932C83.1476 20.392 83.3394 20.6193 83.5714 20.875C83.8034 21.1354 84.1206 21.3603 84.5231 21.5497C84.9303 21.7438 85.4629 21.8409 86.1211 21.8409C87.0018 21.8409 87.7286 21.6278 88.3015 21.2017C88.8744 20.7756 89.1609 20.108 89.1609 19.1989V16.983H89.0188C88.8957 17.1818 88.7205 17.428 88.4933 17.7216C88.2707 18.0104 87.9487 18.2685 87.5273 18.4957C87.1107 18.7183 86.5472 18.8295 85.837 18.8295C84.9563 18.8295 84.1656 18.6212 83.4648 18.2045C82.7688 17.7879 82.2172 17.1818 81.81 16.3864C81.4076 15.5909 81.2063 14.625 81.2063 13.4886C81.2063 12.3712 81.4028 11.3982 81.7958 10.5696C82.1888 9.73627 82.7357 9.09233 83.4364 8.63778C84.1372 8.1785 84.9469 7.94886 85.8654 7.94886C86.5756 7.94886 87.1391 8.06723 87.5558 8.30398C87.9772 8.53598 88.2991 8.80114 88.5217 9.09943C88.7489 9.39299 88.9241 9.63447 89.0472 9.82386H89.2177V8.09091H90.837V19.3125C90.837 20.25 90.6239 21.0123 90.1978 21.5994C89.7764 22.1913 89.2082 22.6245 88.4933 22.8991C87.783 23.1785 86.9923 23.3182 86.1211 23.3182ZM86.0643 17.3239C86.7366 17.3239 87.3048 17.17 87.7688 16.8622C88.2328 16.5545 88.5856 16.1117 88.8271 15.5341C89.0685 14.9564 89.1893 14.2652 89.1893 13.4602C89.1893 12.6742 89.0709 11.9806 88.8342 11.3793C88.5974 10.7779 88.247 10.3068 87.783 9.96591C87.319 9.625 86.7461 9.45455 86.0643 9.45455C85.354 9.45455 84.7622 9.63447 84.2887 9.99432C83.82 10.3542 83.4672 10.8371 83.2305 11.4432C82.9985 12.0492 82.8825 12.7216 82.8825 13.4602C82.8825 14.2178 83.0008 14.8878 83.2376 15.4702C83.479 16.0478 83.8342 16.5024 84.3029 16.8338C84.7764 17.1605 85.3635 17.3239 86.0643 17.3239ZM93.9052 19V8.09091H95.5245V9.73864H95.6381C95.837 9.19886 96.1969 8.76089 96.7177 8.42472C97.2385 8.08854 97.8256 7.92045 98.479 7.92045C98.6022 7.92045 98.756 7.92282 98.9407 7.92756C99.1254 7.93229 99.265 7.93939 99.3597 7.94886V9.65341C99.3029 9.6392 99.1727 9.6179 98.9691 9.58949C98.7702 9.55634 98.5595 9.53977 98.337 9.53977C97.8067 9.53977 97.3332 9.65104 96.9165 9.87358C96.5046 10.0914 96.1779 10.3944 95.9364 10.7827C95.6997 11.1662 95.5813 11.6042 95.5813 12.0966V19H93.9052ZM104.557 19.2557C103.866 19.2557 103.238 19.1255 102.675 18.8651C102.111 18.5999 101.664 18.2188 101.332 17.7216C101.001 17.2197 100.835 16.6136 100.835 15.9034C100.835 15.2784 100.958 14.7718 101.205 14.3835C101.451 13.9905 101.78 13.6828 102.192 13.4602C102.604 13.2377 103.058 13.072 103.555 12.9631C104.057 12.8494 104.562 12.7595 105.068 12.6932C105.731 12.608 106.268 12.544 106.68 12.5014C107.097 12.4541 107.4 12.3759 107.589 12.267C107.784 12.1581 107.881 11.9687 107.881 11.6989V11.642C107.881 10.9413 107.689 10.3968 107.305 10.0085C106.927 9.62027 106.351 9.42614 105.58 9.42614C104.779 9.42614 104.152 9.60133 103.697 9.9517C103.243 10.3021 102.923 10.6761 102.739 11.0739L101.148 10.5057C101.432 9.8428 101.811 9.3267 102.284 8.95739C102.762 8.58333 103.283 8.32292 103.847 8.17614C104.415 8.02462 104.973 7.94886 105.523 7.94886C105.873 7.94886 106.276 7.99148 106.73 8.0767C107.189 8.1572 107.632 8.32528 108.058 8.58097C108.489 8.83665 108.847 9.22254 109.131 9.73864C109.415 10.2547 109.557 10.946 109.557 11.8125V19H107.881V17.5227H107.795C107.682 17.7595 107.492 18.0128 107.227 18.2827C106.962 18.5526 106.609 18.7822 106.169 18.9716C105.729 19.161 105.191 19.2557 104.557 19.2557ZM104.812 17.75C105.475 17.75 106.034 17.6198 106.489 17.3594C106.948 17.099 107.294 16.7628 107.526 16.3509C107.762 15.9389 107.881 15.5057 107.881 15.0511V13.517C107.81 13.6023 107.653 13.6804 107.412 13.7514C107.175 13.8177 106.901 13.8769 106.588 13.929C106.28 13.9763 105.98 14.0189 105.686 14.0568C105.397 14.09 105.163 14.1184 104.983 14.142C104.547 14.1989 104.14 14.2912 103.761 14.419C103.387 14.5421 103.084 14.7292 102.852 14.9801C102.625 15.2263 102.511 15.5625 102.511 15.9886C102.511 16.571 102.727 17.0114 103.158 17.3097C103.593 17.6032 104.145 17.75 104.812 17.75ZM117.36 8.09091V9.51136H111.707V8.09091H117.36ZM113.355 5.47727H115.031V15.875C115.031 16.3485 115.1 16.7036 115.237 16.9403C115.379 17.1723 115.559 17.3286 115.777 17.4091C115.999 17.4848 116.234 17.5227 116.48 17.5227C116.664 17.5227 116.816 17.5133 116.934 17.4943C117.053 17.4706 117.147 17.4517 117.218 17.4375L117.559 18.9432C117.446 18.9858 117.287 19.0284 117.083 19.071C116.88 19.1184 116.622 19.142 116.309 19.142C115.836 19.142 115.372 19.0402 114.917 18.8366C114.467 18.633 114.093 18.3229 113.795 17.9062C113.502 17.4896 113.355 16.964 113.355 16.3295V5.47727ZM127.414 10.5341L125.908 10.9602C125.813 10.7093 125.674 10.4654 125.489 10.2287C125.309 9.98722 125.063 9.78835 124.75 9.6321C124.438 9.47585 124.038 9.39773 123.55 9.39773C122.882 9.39773 122.326 9.55161 121.881 9.85938C121.441 10.1624 121.221 10.5483 121.221 11.017C121.221 11.4337 121.372 11.7628 121.675 12.0043C121.978 12.2457 122.452 12.447 123.096 12.608L124.715 13.0057C125.69 13.2424 126.417 13.6046 126.895 14.0923C127.373 14.5753 127.613 15.1979 127.613 15.9602C127.613 16.5852 127.433 17.1439 127.073 17.6364C126.718 18.1288 126.221 18.517 125.581 18.8011C124.942 19.0852 124.199 19.2273 123.351 19.2273C122.239 19.2273 121.318 18.9858 120.588 18.5028C119.859 18.0199 119.398 17.3144 119.203 16.3864L120.794 15.9886C120.946 16.5758 121.232 17.0161 121.654 17.3097C122.08 17.6032 122.636 17.75 123.323 17.75C124.104 17.75 124.724 17.5843 125.184 17.2528C125.648 16.9167 125.88 16.5142 125.88 16.0455C125.88 15.6667 125.747 15.3494 125.482 15.0938C125.217 14.8333 124.81 14.6392 124.26 14.5114L122.442 14.0852C121.443 13.8485 120.709 13.4815 120.24 12.9844C119.776 12.4825 119.544 11.8551 119.544 11.1023C119.544 10.4867 119.717 9.94223 120.063 9.46875C120.413 8.99527 120.889 8.62358 121.49 8.35369C122.096 8.08381 122.783 7.94886 123.55 7.94886C124.63 7.94886 125.477 8.18561 126.093 8.65909C126.713 9.13258 127.153 9.75758 127.414 10.5341ZM132.352 4.45455L132.21 14.9091H130.562L130.42 4.45455H132.352ZM131.386 19.1136C131.035 19.1136 130.735 18.9882 130.484 18.7372C130.233 18.4863 130.107 18.1856 130.107 17.8352C130.107 17.4848 130.233 17.1842 130.484 16.9332C130.735 16.6823 131.035 16.5568 131.386 16.5568C131.736 16.5568 132.037 16.6823 132.288 16.9332C132.539 17.1842 132.664 17.4848 132.664 17.8352C132.664 18.0672 132.605 18.2803 132.487 18.4744C132.373 18.6686 132.219 18.8248 132.025 18.9432C131.835 19.0568 131.622 19.1136 131.386 19.1136ZM140.304 4.45455H142.321L146.355 11.2443H146.526L150.56 4.45455H152.577L147.321 13.0057V19H145.56V13.0057L140.304 4.45455ZM157.517 19.2273C156.532 19.2273 155.668 18.9929 154.924 18.5241C154.186 18.0554 153.608 17.3996 153.191 16.5568C152.779 15.714 152.574 14.7292 152.574 13.6023C152.574 12.4659 152.779 11.474 153.191 10.6264C153.608 9.77888 154.186 9.12074 154.924 8.65199C155.668 8.18324 156.532 7.94886 157.517 7.94886C158.502 7.94886 159.363 8.18324 160.102 8.65199C160.845 9.12074 161.423 9.77888 161.835 10.6264C162.252 11.474 162.46 12.4659 162.46 13.6023C162.46 14.7292 162.252 15.714 161.835 16.5568C161.423 17.3996 160.845 18.0554 160.102 18.5241C159.363 18.9929 158.502 19.2273 157.517 19.2273ZM157.517 17.7216C158.265 17.7216 158.88 17.5298 159.363 17.1463C159.846 16.7628 160.204 16.2585 160.436 15.6335C160.668 15.0085 160.784 14.3314 160.784 13.6023C160.784 12.8731 160.668 12.1937 160.436 11.5639C160.204 10.9342 159.846 10.4252 159.363 10.0369C158.88 9.64867 158.265 9.45455 157.517 9.45455C156.769 9.45455 156.153 9.64867 155.67 10.0369C155.187 10.4252 154.83 10.9342 154.598 11.5639C154.366 12.1937 154.25 12.8731 154.25 13.6023C154.25 14.3314 154.366 15.0085 154.598 15.6335C154.83 16.2585 155.187 16.7628 155.67 17.1463C156.153 17.5298 156.769 17.7216 157.517 17.7216ZM171.893 14.5398V8.09091H173.57V19H171.893V17.1534H171.78C171.524 17.7074 171.126 18.1785 170.587 18.5668C170.047 18.9503 169.365 19.142 168.541 19.142C167.859 19.142 167.253 18.9929 166.723 18.6946C166.193 18.3916 165.776 17.937 165.473 17.331C165.17 16.7202 165.018 15.9508 165.018 15.0227V8.09091H166.695V14.9091C166.695 15.7045 166.917 16.339 167.362 16.8125C167.812 17.286 168.385 17.5227 169.081 17.5227C169.498 17.5227 169.921 17.4162 170.352 17.2031C170.788 16.9901 171.152 16.6634 171.446 16.223C171.744 15.7827 171.893 15.2216 171.893 14.5398ZM182.265 8.09091H183.941V19.7955C183.941 20.4678 183.825 21.0502 183.593 21.5426C183.365 22.035 183.02 22.4162 182.556 22.6861C182.096 22.956 181.516 23.0909 180.816 23.0909C180.759 23.0909 180.702 23.0909 180.645 23.0909C180.588 23.0909 180.532 23.0909 180.475 23.0909V21.5284C180.532 21.5284 180.584 21.5284 180.631 21.5284C180.678 21.5284 180.73 21.5284 180.787 21.5284C181.299 21.5284 181.673 21.3769 181.909 21.0739C182.146 20.7756 182.265 20.3494 182.265 19.7955V8.09091ZM183.088 6.27273C182.762 6.27273 182.48 6.16146 182.243 5.93892C182.011 5.71638 181.895 5.44886 181.895 5.13636C181.895 4.82386 182.011 4.55634 182.243 4.33381C182.48 4.11127 182.762 4 183.088 4C183.415 4 183.694 4.11127 183.926 4.33381C184.163 4.55634 184.282 4.82386 184.282 5.13636C184.282 5.44886 184.163 5.71638 183.926 5.93892C183.694 6.16146 183.415 6.27273 183.088 6.27273ZM193.886 14.5398V8.09091H195.562V19H193.886V17.1534H193.772C193.516 17.7074 193.119 18.1785 192.579 18.5668C192.039 18.9503 191.357 19.142 190.533 19.142C189.852 19.142 189.246 18.9929 188.715 18.6946C188.185 18.3916 187.768 17.937 187.465 17.331C187.162 16.7202 187.011 15.9508 187.011 15.0227V8.09091H188.687V14.9091C188.687 15.7045 188.909 16.339 189.354 16.8125C189.804 17.286 190.377 17.5227 191.073 17.5227C191.49 17.5227 191.914 17.4162 192.344 17.2031C192.78 16.9901 193.145 16.6634 193.438 16.223C193.737 15.7827 193.886 15.2216 193.886 14.5398ZM206.359 10.5341L204.853 10.9602C204.759 10.7093 204.619 10.4654 204.434 10.2287C204.254 9.98722 204.008 9.78835 203.696 9.6321C203.383 9.47585 202.983 9.39773 202.495 9.39773C201.828 9.39773 201.271 9.55161 200.826 9.85938C200.386 10.1624 200.166 10.5483 200.166 11.017C200.166 11.4337 200.317 11.7628 200.62 12.0043C200.923 12.2457 201.397 12.447 202.041 12.608L203.66 13.0057C204.636 13.2424 205.362 13.6046 205.841 14.0923C206.319 14.5753 206.558 15.1979 206.558 15.9602C206.558 16.5852 206.378 17.1439 206.018 17.6364C205.663 18.1288 205.166 18.517 204.527 18.8011C203.887 19.0852 203.144 19.2273 202.297 19.2273C201.184 19.2273 200.263 18.9858 199.534 18.5028C198.805 18.0199 198.343 17.3144 198.149 16.3864L199.74 15.9886C199.891 16.5758 200.178 17.0161 200.599 17.3097C201.025 17.6032 201.582 17.75 202.268 17.75C203.049 17.75 203.67 17.5843 204.129 17.2528C204.593 16.9167 204.825 16.5142 204.825 16.0455C204.825 15.6667 204.692 15.3494 204.427 15.0938C204.162 14.8333 203.755 14.6392 203.206 14.5114L201.387 14.0852C200.388 13.8485 199.654 13.4815 199.186 12.9844C198.722 12.4825 198.49 11.8551 198.49 11.1023C198.49 10.4867 198.663 9.94223 199.008 9.46875C199.359 8.99527 199.834 8.62358 200.436 8.35369C201.042 8.08381 201.728 7.94886 202.495 7.94886C203.575 7.94886 204.422 8.18561 205.038 8.65909C205.658 9.13258 206.099 9.75758 206.359 10.5341ZM213.825 8.09091V9.51136H208.172V8.09091H213.825ZM209.82 5.47727H211.496V15.875C211.496 16.3485 211.564 16.7036 211.702 16.9403C211.844 17.1723 212.024 17.3286 212.241 17.4091C212.464 17.4848 212.698 17.5227 212.945 17.5227C213.129 17.5227 213.281 17.5133 213.399 17.4943C213.518 17.4706 213.612 17.4517 213.683 17.4375L214.024 18.9432C213.911 18.9858 213.752 19.0284 213.548 19.071C213.345 19.1184 213.087 19.142 212.774 19.142C212.301 19.142 211.837 19.0402 211.382 18.8366C210.932 18.633 210.558 18.3229 210.26 17.9062C209.966 17.4896 209.82 16.964 209.82 16.3295V5.47727ZM226.091 19.2273C225.182 19.2273 224.379 18.9976 223.683 18.5384C222.987 18.0743 222.443 17.4209 222.05 16.5781C221.657 15.7306 221.46 14.7292 221.46 13.5739C221.46 12.428 221.657 11.4337 222.05 10.5909C222.443 9.74811 222.99 9.09706 223.69 8.63778C224.391 8.1785 225.201 7.94886 226.119 7.94886C226.83 7.94886 227.391 8.06723 227.803 8.30398C228.219 8.53598 228.536 8.80114 228.754 9.09943C228.977 9.39299 229.15 9.63447 229.273 9.82386H229.415V4.45455H231.091V19H229.472V17.3239H229.273C229.15 17.5227 228.974 17.7737 228.747 18.0767C228.52 18.375 228.196 18.6425 227.774 18.8793C227.353 19.1113 226.792 19.2273 226.091 19.2273ZM226.318 17.7216C226.991 17.7216 227.559 17.5464 228.023 17.196C228.487 16.8409 228.839 16.3509 229.081 15.7259C229.322 15.0961 229.443 14.3693 229.443 13.5455C229.443 12.7311 229.325 12.0185 229.088 11.4077C228.851 10.7921 228.501 10.3139 228.037 9.97301C227.573 9.62737 227 9.45455 226.318 9.45455C225.608 9.45455 225.016 9.63684 224.543 10.0014C224.074 10.3613 223.721 10.8513 223.484 11.4716C223.252 12.0871 223.136 12.7784 223.136 13.5455C223.136 14.322 223.255 15.0275 223.491 15.6619C223.733 16.2917 224.088 16.7936 224.557 17.1676C225.03 17.5369 225.617 17.7216 226.318 17.7216ZM238.967 19.2273C237.916 19.2273 237.009 18.9953 236.247 18.5312C235.49 18.0625 234.905 17.4091 234.493 16.571C234.086 15.7282 233.882 14.7481 233.882 13.6307C233.882 12.5133 234.086 11.5284 234.493 10.6761C234.905 9.81913 235.478 9.15152 236.212 8.6733C236.95 8.19034 237.812 7.94886 238.797 7.94886C239.365 7.94886 239.926 8.04356 240.48 8.23295C241.034 8.42235 241.538 8.73011 241.993 9.15625C242.447 9.57765 242.81 10.1364 243.08 10.8324C243.349 11.5284 243.484 12.3854 243.484 13.4034V14.1136H235.075V12.6648H241.78C241.78 12.0492 241.657 11.5 241.411 11.017C241.169 10.5341 240.823 10.1529 240.374 9.87358C239.929 9.59422 239.403 9.45455 238.797 9.45455C238.129 9.45455 237.552 9.62026 237.064 9.9517C236.581 10.2784 236.209 10.7045 235.949 11.2301C235.688 11.7557 235.558 12.3191 235.558 12.9205V13.8864C235.558 14.7102 235.7 15.4086 235.984 15.9815C236.273 16.5497 236.673 16.983 237.185 17.2812C237.696 17.5748 238.29 17.7216 238.967 17.7216C239.408 17.7216 239.805 17.66 240.161 17.5369C240.52 17.4091 240.83 17.2197 241.091 16.9688C241.351 16.7131 241.553 16.3958 241.695 16.017L243.314 16.4716C243.143 17.0208 242.857 17.5038 242.455 17.9205C242.052 18.3324 241.555 18.6544 240.963 18.8864C240.371 19.1136 239.706 19.2273 238.967 19.2273ZM247.71 4.45455V19H246.034V4.45455H247.71ZM250.78 19V8.09091H252.456V19H250.78ZM251.632 6.27273C251.306 6.27273 251.024 6.16146 250.787 5.93892C250.555 5.71638 250.439 5.44886 250.439 5.13636C250.439 4.82386 250.555 4.55634 250.787 4.33381C251.024 4.11127 251.306 4 251.632 4C251.959 4 252.239 4.11127 252.471 4.33381C252.707 4.55634 252.826 4.82386 252.826 5.13636C252.826 5.44886 252.707 5.71638 252.471 5.93892C252.239 6.16146 251.959 6.27273 251.632 6.27273ZM264.447 8.09091L260.413 19H258.708L254.674 8.09091H256.492L259.504 16.7841H259.617L262.629 8.09091H264.447ZM270.842 19.2273C269.791 19.2273 268.884 18.9953 268.122 18.5312C267.365 18.0625 266.78 17.4091 266.368 16.571C265.961 15.7282 265.757 14.7481 265.757 13.6307C265.757 12.5133 265.961 11.5284 266.368 10.6761C266.78 9.81913 267.353 9.15152 268.087 8.6733C268.825 8.19034 269.687 7.94886 270.672 7.94886C271.24 7.94886 271.801 8.04356 272.355 8.23295C272.909 8.42235 273.413 8.73011 273.868 9.15625C274.322 9.57765 274.685 10.1364 274.955 10.8324C275.224 11.5284 275.359 12.3854 275.359 13.4034V14.1136H266.95V12.6648H273.655C273.655 12.0492 273.532 11.5 273.286 11.017C273.044 10.5341 272.698 10.1529 272.249 9.87358C271.804 9.59422 271.278 9.45455 270.672 9.45455C270.004 9.45455 269.427 9.62026 268.939 9.9517C268.456 10.2784 268.084 10.7045 267.824 11.2301C267.563 11.7557 267.433 12.3191 267.433 12.9205V13.8864C267.433 14.7102 267.575 15.4086 267.859 15.9815C268.148 16.5497 268.548 16.983 269.06 17.2812C269.571 17.5748 270.165 17.7216 270.842 17.7216C271.283 17.7216 271.68 17.66 272.036 17.5369C272.395 17.4091 272.705 17.2197 272.966 16.9688C273.226 16.7131 273.428 16.3958 273.57 16.017L275.189 16.4716C275.018 17.0208 274.732 17.5038 274.33 17.9205C273.927 18.3324 273.43 18.6544 272.838 18.8864C272.246 19.1136 271.581 19.2273 270.842 19.2273ZM277.909 19V8.09091H279.528V9.73864H279.642C279.841 9.19886 280.201 8.76089 280.722 8.42472C281.242 8.08854 281.83 7.92045 282.483 7.92045C282.606 7.92045 282.76 7.92282 282.945 7.92756C283.129 7.93229 283.269 7.93939 283.364 7.94886V9.65341C283.307 9.6392 283.177 9.6179 282.973 9.58949C282.774 9.55634 282.563 9.53977 282.341 9.53977C281.811 9.53977 281.337 9.65104 280.92 9.87358C280.509 10.0914 280.182 10.3944 279.94 10.7827C279.704 11.1662 279.585 11.6042 279.585 12.0966V19H277.909ZM289.592 19.2273C288.541 19.2273 287.634 18.9953 286.872 18.5312C286.115 18.0625 285.53 17.4091 285.118 16.571C284.711 15.7282 284.507 14.7481 284.507 13.6307C284.507 12.5133 284.711 11.5284 285.118 10.6761C285.53 9.81913 286.103 9.15152 286.837 8.6733C287.575 8.19034 288.437 7.94886 289.422 7.94886C289.99 7.94886 290.551 8.04356 291.105 8.23295C291.659 8.42235 292.163 8.73011 292.618 9.15625C293.072 9.57765 293.435 10.1364 293.705 10.8324C293.974 11.5284 294.109 12.3854 294.109 13.4034V14.1136H285.7V12.6648H292.405C292.405 12.0492 292.282 11.5 292.036 11.017C291.794 10.5341 291.448 10.1529 290.999 9.87358C290.554 9.59422 290.028 9.45455 289.422 9.45455C288.754 9.45455 288.177 9.62026 287.689 9.9517C287.206 10.2784 286.834 10.7045 286.574 11.2301C286.313 11.7557 286.183 12.3191 286.183 12.9205V13.8864C286.183 14.7102 286.325 15.4086 286.609 15.9815C286.898 16.5497 287.298 16.983 287.81 17.2812C288.321 17.5748 288.915 17.7216 289.592 17.7216C290.033 17.7216 290.43 17.66 290.786 17.5369C291.145 17.4091 291.455 17.2197 291.716 16.9688C291.976 16.7131 292.178 16.3958 292.32 16.017L293.939 16.4716C293.768 17.0208 293.482 17.5038 293.08 17.9205C292.677 18.3324 292.18 18.6544 291.588 18.8864C290.996 19.1136 290.331 19.2273 289.592 19.2273ZM300.778 19.2273C299.869 19.2273 299.067 18.9976 298.371 18.5384C297.675 18.0743 297.13 17.4209 296.737 16.5781C296.344 15.7306 296.148 14.7292 296.148 13.5739C296.148 12.428 296.344 11.4337 296.737 10.5909C297.13 9.74811 297.677 9.09706 298.378 8.63778C299.079 8.1785 299.888 7.94886 300.807 7.94886C301.517 7.94886 302.078 8.06723 302.49 8.30398C302.907 8.53598 303.224 8.80114 303.442 9.09943C303.664 9.39299 303.837 9.63447 303.96 9.82386H304.102V4.45455H305.778V19H304.159V17.3239H303.96C303.837 17.5227 303.662 17.7737 303.435 18.0767C303.207 18.375 302.883 18.6425 302.462 18.8793C302.04 19.1113 301.479 19.2273 300.778 19.2273ZM301.006 17.7216C301.678 17.7216 302.246 17.5464 302.71 17.196C303.174 16.8409 303.527 16.3509 303.768 15.7259C304.01 15.0961 304.131 14.3693 304.131 13.5455C304.131 12.7311 304.012 12.0185 303.776 11.4077C303.539 10.7921 303.188 10.3139 302.724 9.97301C302.26 9.62737 301.688 9.45455 301.006 9.45455C300.295 9.45455 299.704 9.63684 299.23 10.0014C298.761 10.3613 298.409 10.8513 298.172 11.4716C297.94 12.0871 297.824 12.7784 297.824 13.5455C297.824 14.322 297.942 15.0275 298.179 15.6619C298.42 16.2917 298.776 16.7936 299.244 17.1676C299.718 17.5369 300.305 17.7216 301.006 17.7216ZM317.916 19.2557C317.225 19.2557 316.598 19.1255 316.034 18.8651C315.471 18.5999 315.023 18.2188 314.692 17.7216C314.36 17.2197 314.195 16.6136 314.195 15.9034C314.195 15.2784 314.318 14.7718 314.564 14.3835C314.81 13.9905 315.139 13.6828 315.551 13.4602C315.963 13.2377 316.418 13.072 316.915 12.9631C317.417 12.8494 317.921 12.7595 318.428 12.6932C319.09 12.608 319.628 12.544 320.04 12.5014C320.456 12.4541 320.759 12.3759 320.949 12.267C321.143 12.1581 321.24 11.9687 321.24 11.6989V11.642C321.24 10.9413 321.048 10.3968 320.665 10.0085C320.286 9.62027 319.711 9.42614 318.939 9.42614C318.139 9.42614 317.511 9.60133 317.057 9.9517C316.602 10.3021 316.283 10.6761 316.098 11.0739L314.507 10.5057C314.791 9.8428 315.17 9.3267 315.643 8.95739C316.122 8.58333 316.643 8.32292 317.206 8.17614C317.774 8.02462 318.333 7.94886 318.882 7.94886C319.232 7.94886 319.635 7.99148 320.089 8.0767C320.549 8.1572 320.991 8.32528 321.418 8.58097C321.848 8.83665 322.206 9.22254 322.49 9.73864C322.774 10.2547 322.916 10.946 322.916 11.8125V19H321.24V17.5227H321.155C321.041 17.7595 320.852 18.0128 320.587 18.2827C320.321 18.5526 319.969 18.7822 319.528 18.9716C319.088 19.161 318.551 19.2557 317.916 19.2557ZM318.172 17.75C318.835 17.75 319.393 17.6198 319.848 17.3594C320.307 17.099 320.653 16.7628 320.885 16.3509C321.122 15.9389 321.24 15.5057 321.24 15.0511V13.517C321.169 13.6023 321.013 13.6804 320.771 13.7514C320.535 13.8177 320.26 13.8769 319.947 13.929C319.64 13.9763 319.339 14.0189 319.045 14.0568C318.757 14.09 318.522 14.1184 318.342 14.142C317.907 14.1989 317.5 14.2912 317.121 14.419C316.747 14.5421 316.444 14.7292 316.212 14.9801C315.984 15.2263 315.871 15.5625 315.871 15.9886C315.871 16.571 316.086 17.0114 316.517 17.3097C316.953 17.6032 317.504 17.75 318.172 17.75ZM333.277 12.4375V19H331.6V4.45455H333.277V9.79545H333.419C333.674 9.23201 334.058 8.78456 334.569 8.45312C335.085 8.11695 335.772 7.94886 336.629 7.94886C337.372 7.94886 338.023 8.09801 338.582 8.39631C339.141 8.68987 339.574 9.14205 339.882 9.75284C340.194 10.3589 340.35 11.1307 340.35 12.0682V19H338.674V12.1818C338.674 11.3153 338.449 10.6454 338 10.1719C337.555 9.69366 336.937 9.45455 336.146 9.45455C335.597 9.45455 335.104 9.57055 334.669 9.80256C334.238 10.0346 333.897 10.3731 333.646 10.8182C333.4 11.2633 333.277 11.803 333.277 12.4375ZM343.417 19V8.09091H345.093V19H343.417ZM344.269 6.27273C343.942 6.27273 343.661 6.16146 343.424 5.93892C343.192 5.71638 343.076 5.44886 343.076 5.13636C343.076 4.82386 343.192 4.55634 343.424 4.33381C343.661 4.11127 343.942 4 344.269 4C344.596 4 344.875 4.11127 345.107 4.33381C345.344 4.55634 345.462 4.82386 345.462 5.13636C345.462 5.44886 345.344 5.71638 345.107 5.93892C344.875 6.16146 344.596 6.27273 344.269 6.27273ZM352.566 23.3182C351.757 23.3182 351.061 23.214 350.478 23.0057C349.896 22.8021 349.411 22.5322 349.022 22.196C348.639 21.8646 348.333 21.5095 348.106 21.1307L349.441 20.1932C349.593 20.392 349.785 20.6193 350.017 20.875C350.249 21.1354 350.566 21.3603 350.968 21.5497C351.376 21.7438 351.908 21.8409 352.566 21.8409C353.447 21.8409 354.174 21.6278 354.747 21.2017C355.32 20.7756 355.606 20.108 355.606 19.1989V16.983H355.464C355.341 17.1818 355.166 17.428 354.939 17.7216C354.716 18.0104 354.394 18.2685 353.973 18.4957C353.556 18.7183 352.993 18.8295 352.282 18.8295C351.402 18.8295 350.611 18.6212 349.91 18.2045C349.214 17.7879 348.663 17.1818 348.255 16.3864C347.853 15.5909 347.652 14.625 347.652 13.4886C347.652 12.3712 347.848 11.3982 348.241 10.5696C348.634 9.73627 349.181 9.09233 349.882 8.63778C350.583 8.1785 351.392 7.94886 352.311 7.94886C353.021 7.94886 353.584 8.06723 354.001 8.30398C354.422 8.53598 354.744 8.80114 354.967 9.09943C355.194 9.39299 355.369 9.63447 355.493 9.82386H355.663V8.09091H357.282V19.3125C357.282 20.25 357.069 21.0123 356.643 21.5994C356.222 22.1913 355.654 22.6245 354.939 22.8991C354.228 23.1785 353.438 23.3182 352.566 23.3182ZM352.51 17.3239C353.182 17.3239 353.75 17.17 354.214 16.8622C354.678 16.5545 355.031 16.1117 355.272 15.5341C355.514 14.9564 355.635 14.2652 355.635 13.4602C355.635 12.6742 355.516 11.9806 355.279 11.3793C355.043 10.7779 354.692 10.3068 354.228 9.96591C353.764 9.625 353.191 9.45455 352.51 9.45455C351.799 9.45455 351.208 9.63447 350.734 9.99432C350.265 10.3542 349.913 10.8371 349.676 11.4432C349.444 12.0492 349.328 12.7216 349.328 13.4602C349.328 14.2178 349.446 14.8878 349.683 15.4702C349.924 16.0478 350.279 16.5024 350.748 16.8338C351.222 17.1605 351.809 17.3239 352.51 17.3239ZM362.027 12.4375V19H360.35V4.45455H362.027V9.79545H362.169C362.424 9.23201 362.808 8.78456 363.319 8.45312C363.835 8.11695 364.522 7.94886 365.379 7.94886C366.122 7.94886 366.773 8.09801 367.332 8.39631C367.891 8.68987 368.324 9.14205 368.632 9.75284C368.944 10.3589 369.1 11.1307 369.1 12.0682V19H367.424V12.1818C367.424 11.3153 367.199 10.6454 366.75 10.1719C366.305 9.69366 365.687 9.45455 364.896 9.45455C364.347 9.45455 363.854 9.57055 363.419 9.80256C362.988 10.0346 362.647 10.3731 362.396 10.8182C362.15 11.2633 362.027 11.803 362.027 12.4375ZM373.843 4.45455V19H372.167V4.45455H373.843ZM377.993 23.0909C377.708 23.0909 377.455 23.0672 377.233 23.0199C377.01 22.9773 376.856 22.9347 376.771 22.892L377.197 21.4148C377.604 21.5189 377.964 21.5568 378.277 21.5284C378.589 21.5 378.866 21.3603 379.108 21.1094C379.354 20.8632 379.579 20.4631 379.782 19.9091L380.095 19.0568L376.061 8.09091H377.879L380.89 16.7841H381.004L384.015 8.09091H385.833L381.203 20.5909C380.994 21.1544 380.736 21.6207 380.429 21.9901C380.121 22.3641 379.763 22.6411 379.356 22.821C378.954 23.0009 378.499 23.0909 377.993 23.0909ZM393.671 19V8.09091H395.29V9.73864H395.404C395.603 9.19886 395.962 8.76089 396.483 8.42472C397.004 8.08854 397.591 7.92045 398.245 7.92045C398.368 7.92045 398.522 7.92282 398.706 7.92756C398.891 7.93229 399.031 7.93939 399.125 7.94886V9.65341C399.069 9.6392 398.938 9.6179 398.735 9.58949C398.536 9.55634 398.325 9.53977 398.103 9.53977C397.572 9.53977 397.099 9.65104 396.682 9.87358C396.27 10.0914 395.944 10.3944 395.702 10.7827C395.465 11.1662 395.347 11.6042 395.347 12.0966V19H393.671ZM405.354 19.2273C404.303 19.2273 403.396 18.9953 402.634 18.5312C401.876 18.0625 401.292 17.4091 400.88 16.571C400.472 15.7282 400.269 14.7481 400.269 13.6307C400.269 12.5133 400.472 11.5284 400.88 10.6761C401.292 9.81913 401.864 9.15152 402.598 8.6733C403.337 8.19034 404.199 7.94886 405.184 7.94886C405.752 7.94886 406.313 8.04356 406.867 8.23295C407.421 8.42235 407.925 8.73011 408.38 9.15625C408.834 9.57765 409.196 10.1364 409.466 10.8324C409.736 11.5284 409.871 12.3854 409.871 13.4034V14.1136H401.462V12.6648H408.167C408.167 12.0492 408.043 11.5 407.797 11.017C407.556 10.5341 407.21 10.1529 406.76 9.87358C406.315 9.59422 405.79 9.45455 405.184 9.45455C404.516 9.45455 403.938 9.62026 403.451 9.9517C402.968 10.2784 402.596 10.7045 402.336 11.2301C402.075 11.7557 401.945 12.3191 401.945 12.9205V13.8864C401.945 14.7102 402.087 15.4086 402.371 15.9815C402.66 16.5497 403.06 16.983 403.571 17.2812C404.083 17.5748 404.677 17.7216 405.354 17.7216C405.794 17.7216 406.192 17.66 406.547 17.5369C406.907 17.4091 407.217 17.2197 407.478 16.9688C407.738 16.7131 407.939 16.3958 408.081 16.017L409.701 16.4716C409.53 17.0208 409.244 17.5038 408.841 17.9205C408.439 18.3324 407.942 18.6544 407.35 18.8864C406.758 19.1136 406.093 19.2273 405.354 19.2273ZM419.864 23.0909V17.3239H419.722C419.599 17.5227 419.424 17.7737 419.196 18.0767C418.969 18.375 418.645 18.6425 418.223 18.8793C417.802 19.1113 417.241 19.2273 416.54 19.2273C415.631 19.2273 414.828 18.9976 414.132 18.5384C413.436 18.0743 412.892 17.4209 412.499 16.5781C412.106 15.7306 411.909 14.7292 411.909 13.5739C411.909 12.428 412.106 11.4337 412.499 10.5909C412.892 9.74811 413.439 9.09706 414.14 8.63778C414.84 8.1785 415.65 7.94886 416.569 7.94886C417.279 7.94886 417.84 8.06723 418.252 8.30398C418.668 8.53598 418.986 8.80114 419.203 9.09943C419.426 9.39299 419.599 9.63447 419.722 9.82386H419.921V8.09091H421.54V23.0909H419.864ZM416.767 17.7216C417.44 17.7216 418.008 17.5464 418.472 17.196C418.936 16.8409 419.289 16.3509 419.53 15.7259C419.772 15.0961 419.892 14.3693 419.892 13.5455C419.892 12.7311 419.774 12.0185 419.537 11.4077C419.301 10.7921 418.95 10.3139 418.486 9.97301C418.022 9.62737 417.449 9.45455 416.767 9.45455C416.057 9.45455 415.465 9.63684 414.992 10.0014C414.523 10.3613 414.17 10.8513 413.934 11.4716C413.702 12.0871 413.586 12.7784 413.586 13.5455C413.586 14.322 413.704 15.0275 413.941 15.6619C414.182 16.2917 414.537 16.7936 415.006 17.1676C415.48 17.5369 416.067 17.7216 416.767 17.7216ZM431.483 14.5398V8.09091H433.159V19H431.483V17.1534H431.37C431.114 17.7074 430.716 18.1785 430.176 18.5668C429.637 18.9503 428.955 19.142 428.131 19.142C427.449 19.142 426.843 18.9929 426.313 18.6946C425.783 18.3916 425.366 17.937 425.063 17.331C424.76 16.7202 424.608 15.9508 424.608 15.0227V8.09091H426.284V14.9091C426.284 15.7045 426.507 16.339 426.952 16.8125C427.402 17.286 427.975 17.5227 428.671 17.5227C429.087 17.5227 429.511 17.4162 429.942 17.2031C430.378 16.9901 430.742 16.6634 431.036 16.223C431.334 15.7827 431.483 15.2216 431.483 14.5398ZM440.803 19.2273C439.752 19.2273 438.845 18.9953 438.083 18.5312C437.326 18.0625 436.741 17.4091 436.329 16.571C435.922 15.7282 435.718 14.7481 435.718 13.6307C435.718 12.5133 435.922 11.5284 436.329 10.6761C436.741 9.81913 437.314 9.15152 438.048 8.6733C438.786 8.19034 439.648 7.94886 440.633 7.94886C441.201 7.94886 441.762 8.04356 442.316 8.23295C442.87 8.42235 443.374 8.73011 443.829 9.15625C444.283 9.57765 444.646 10.1364 444.915 10.8324C445.185 11.5284 445.32 12.3854 445.32 13.4034V14.1136H436.911V12.6648H443.616C443.616 12.0492 443.493 11.5 443.246 11.017C443.005 10.5341 442.659 10.1529 442.21 9.87358C441.764 9.59422 441.239 9.45455 440.633 9.45455C439.965 9.45455 439.388 9.62026 438.9 9.9517C438.417 10.2784 438.045 10.7045 437.785 11.2301C437.524 11.7557 437.394 12.3191 437.394 12.9205V13.8864C437.394 14.7102 437.536 15.4086 437.82 15.9815C438.109 16.5497 438.509 16.983 439.021 17.2812C439.532 17.5748 440.126 17.7216 440.803 17.7216C441.244 17.7216 441.641 17.66 441.996 17.5369C442.356 17.4091 442.666 17.2197 442.927 16.9688C443.187 16.7131 443.388 16.3958 443.531 16.017L445.15 16.4716C444.979 17.0208 444.693 17.5038 444.29 17.9205C443.888 18.3324 443.391 18.6544 442.799 18.8864C442.207 19.1136 441.542 19.2273 440.803 19.2273ZM455.597 10.5341L454.092 10.9602C453.997 10.7093 453.857 10.4654 453.673 10.2287C453.493 9.98722 453.246 9.78835 452.934 9.6321C452.621 9.47585 452.221 9.39773 451.734 9.39773C451.066 9.39773 450.51 9.55161 450.065 9.85938C449.624 10.1624 449.404 10.5483 449.404 11.017C449.404 11.4337 449.556 11.7628 449.859 12.0043C450.162 12.2457 450.635 12.447 451.279 12.608L452.898 13.0057C453.874 13.2424 454.601 13.6046 455.079 14.0923C455.557 14.5753 455.796 15.1979 455.796 15.9602C455.796 16.5852 455.616 17.1439 455.256 17.6364C454.901 18.1288 454.404 18.517 453.765 18.8011C453.126 19.0852 452.382 19.2273 451.535 19.2273C450.422 19.2273 449.501 18.9858 448.772 18.5028C448.043 18.0199 447.581 17.3144 447.387 16.3864L448.978 15.9886C449.129 16.5758 449.416 17.0161 449.837 17.3097C450.263 17.6032 450.82 17.75 451.506 17.75C452.288 17.75 452.908 17.5843 453.367 17.2528C453.831 16.9167 454.063 16.5142 454.063 16.0455C454.063 15.6667 453.931 15.3494 453.665 15.0938C453.4 14.8333 452.993 14.6392 452.444 14.5114L450.626 14.0852C449.627 13.8485 448.893 13.4815 448.424 12.9844C447.96 12.4825 447.728 11.8551 447.728 11.1023C447.728 10.4867 447.901 9.94223 448.246 9.46875C448.597 8.99527 449.073 8.62358 449.674 8.35369C450.28 8.08381 450.967 7.94886 451.734 7.94886C452.813 7.94886 453.661 8.18561 454.276 8.65909C454.897 9.13258 455.337 9.75758 455.597 10.5341ZM463.064 8.09091V9.51136H457.41V8.09091H463.064ZM459.058 5.47727H460.734V15.875C460.734 16.3485 460.803 16.7036 460.94 16.9403C461.082 17.1723 461.262 17.3286 461.48 17.4091C461.702 17.4848 461.937 17.5227 462.183 17.5227C462.368 17.5227 462.519 17.5133 462.637 17.4943C462.756 17.4706 462.85 17.4517 462.922 17.4375L463.262 18.9432C463.149 18.9858 462.99 19.0284 462.787 19.071C462.583 19.1184 462.325 19.142 462.012 19.142C461.539 19.142 461.075 19.0402 460.62 18.8366C460.171 18.633 459.797 18.3229 459.498 17.9062C459.205 17.4896 459.058 16.964 459.058 16.3295V5.47727ZM470.042 19.2273C468.99 19.2273 468.084 18.9953 467.321 18.5312C466.564 18.0625 465.979 17.4091 465.567 16.571C465.16 15.7282 464.956 14.7481 464.956 13.6307C464.956 12.5133 465.16 11.5284 465.567 10.6761C465.979 9.81913 466.552 9.15152 467.286 8.6733C468.025 8.19034 468.886 7.94886 469.871 7.94886C470.439 7.94886 471 8.04356 471.554 8.23295C472.108 8.42235 472.613 8.73011 473.067 9.15625C473.522 9.57765 473.884 10.1364 474.154 10.8324C474.424 11.5284 474.559 12.3854 474.559 13.4034V14.1136H466.15V12.6648H472.854C472.854 12.0492 472.731 11.5 472.485 11.017C472.243 10.5341 471.898 10.1529 471.448 9.87358C471.003 9.59422 470.477 9.45455 469.871 9.45455C469.203 9.45455 468.626 9.62026 468.138 9.9517C467.655 10.2784 467.283 10.7045 467.023 11.2301C466.763 11.7557 466.632 12.3191 466.632 12.9205V13.8864C466.632 14.7102 466.775 15.4086 467.059 15.9815C467.347 16.5497 467.748 16.983 468.259 17.2812C468.77 17.5748 469.364 17.7216 470.042 17.7216C470.482 17.7216 470.88 17.66 471.235 17.5369C471.595 17.4091 471.905 17.2197 472.165 16.9688C472.426 16.7131 472.627 16.3958 472.769 16.017L474.388 16.4716C474.218 17.0208 473.931 17.5038 473.529 17.9205C473.126 18.3324 472.629 18.6544 472.037 18.8864C471.445 19.1136 470.78 19.2273 470.042 19.2273ZM481.228 19.2273C480.319 19.2273 479.516 18.9976 478.82 18.5384C478.124 18.0743 477.579 17.4209 477.186 16.5781C476.793 15.7306 476.597 14.7292 476.597 13.5739C476.597 12.428 476.793 11.4337 477.186 10.5909C477.579 9.74811 478.126 9.09706 478.827 8.63778C479.528 8.1785 480.337 7.94886 481.256 7.94886C481.966 7.94886 482.527 8.06723 482.939 8.30398C483.356 8.53598 483.673 8.80114 483.891 9.09943C484.114 9.39299 484.286 9.63447 484.409 9.82386H484.551V4.45455H486.228V19H484.608V17.3239H484.409C484.286 17.5227 484.111 17.7737 483.884 18.0767C483.657 18.375 483.332 18.6425 482.911 18.8793C482.489 19.1113 481.928 19.2273 481.228 19.2273ZM481.455 17.7216C482.127 17.7216 482.695 17.5464 483.159 17.196C483.623 16.8409 483.976 16.3509 484.218 15.7259C484.459 15.0961 484.58 14.3693 484.58 13.5455C484.58 12.7311 484.462 12.0185 484.225 11.4077C483.988 10.7921 483.638 10.3139 483.174 9.97301C482.71 9.62737 482.137 9.45455 481.455 9.45455C480.745 9.45455 480.153 9.63684 479.679 10.0014C479.211 10.3613 478.858 10.8513 478.621 11.4716C478.389 12.0871 478.273 12.7784 478.273 13.5455C478.273 14.322 478.391 15.0275 478.628 15.6619C478.87 16.2917 479.225 16.7936 479.694 17.1676C480.167 17.5369 480.754 17.7216 481.455 17.7216ZM500.013 8.09091V9.51136H494.132V8.09091H500.013ZM495.894 19V6.58523C495.894 5.96023 496.041 5.43939 496.334 5.02273C496.628 4.60606 497.009 4.29356 497.478 4.08523C497.946 3.87689 498.441 3.77273 498.962 3.77273C499.374 3.77273 499.71 3.80587 499.971 3.87216C500.231 3.93845 500.425 4 500.553 4.05682L500.07 5.50568C499.985 5.47727 499.866 5.44176 499.715 5.39915C499.568 5.35653 499.374 5.33523 499.132 5.33523C498.578 5.33523 498.178 5.4749 497.932 5.75426C497.691 6.03362 497.57 6.44318 497.57 6.98295V19H495.894ZM506.487 19.2273C505.436 19.2273 504.529 18.9953 503.767 18.5312C503.009 18.0625 502.424 17.4091 502.012 16.571C501.605 15.7282 501.402 14.7481 501.402 13.6307C501.402 12.5133 501.605 11.5284 502.012 10.6761C502.424 9.81913 502.997 9.15152 503.731 8.6733C504.47 8.19034 505.332 7.94886 506.316 7.94886C506.885 7.94886 507.446 8.04356 508 8.23295C508.554 8.42235 509.058 8.73011 509.512 9.15625C509.967 9.57765 510.329 10.1364 510.599 10.8324C510.869 11.5284 511.004 12.3854 511.004 13.4034V14.1136H502.595V12.6648H509.299C509.299 12.0492 509.176 11.5 508.93 11.017C508.689 10.5341 508.343 10.1529 507.893 9.87358C507.448 9.59422 506.922 9.45455 506.316 9.45455C505.649 9.45455 505.071 9.62026 504.583 9.9517C504.1 10.2784 503.729 10.7045 503.468 11.2301C503.208 11.7557 503.078 12.3191 503.078 12.9205V13.8864C503.078 14.7102 503.22 15.4086 503.504 15.9815C503.793 16.5497 504.193 16.983 504.704 17.2812C505.216 17.5748 505.81 17.7216 506.487 17.7216C506.927 17.7216 507.325 17.66 507.68 17.5369C508.04 17.4091 508.35 17.2197 508.61 16.9688C508.871 16.7131 509.072 16.3958 509.214 16.017L510.833 16.4716C510.663 17.0208 510.377 17.5038 509.974 17.9205C509.572 18.3324 509.074 18.6544 508.483 18.8864C507.891 19.1136 507.225 19.2273 506.487 19.2273ZM516.764 19.2557C516.073 19.2557 515.445 19.1255 514.882 18.8651C514.318 18.5999 513.871 18.2188 513.539 17.7216C513.208 17.2197 513.042 16.6136 513.042 15.9034C513.042 15.2784 513.165 14.7718 513.412 14.3835C513.658 13.9905 513.987 13.6828 514.399 13.4602C514.811 13.2377 515.265 13.072 515.762 12.9631C516.264 12.8494 516.769 12.7595 517.275 12.6932C517.938 12.608 518.475 12.544 518.887 12.5014C519.304 12.4541 519.607 12.3759 519.797 12.267C519.991 12.1581 520.088 11.9687 520.088 11.6989V11.642C520.088 10.9413 519.896 10.3968 519.512 10.0085C519.134 9.62027 518.558 9.42614 517.787 9.42614C516.986 9.42614 516.359 9.60133 515.904 9.9517C515.45 10.3021 515.13 10.6761 514.946 11.0739L513.355 10.5057C513.639 9.8428 514.018 9.3267 514.491 8.95739C514.969 8.58333 515.49 8.32292 516.054 8.17614C516.622 8.02462 517.181 7.94886 517.73 7.94886C518.08 7.94886 518.483 7.99148 518.937 8.0767C519.396 8.1572 519.839 8.32528 520.265 8.58097C520.696 8.83665 521.054 9.22254 521.338 9.73864C521.622 10.2547 521.764 10.946 521.764 11.8125V19H520.088V17.5227H520.002C519.889 17.7595 519.699 18.0128 519.434 18.2827C519.169 18.5526 518.816 18.7822 518.376 18.9716C517.936 19.161 517.398 19.2557 516.764 19.2557ZM517.02 17.75C517.682 17.75 518.241 17.6198 518.696 17.3594C519.155 17.099 519.501 16.7628 519.733 16.3509C519.969 15.9389 520.088 15.5057 520.088 15.0511V13.517C520.017 13.6023 519.86 13.6804 519.619 13.7514C519.382 13.8177 519.108 13.8769 518.795 13.929C518.487 13.9763 518.187 14.0189 517.893 14.0568C517.604 14.09 517.37 14.1184 517.19 14.142C516.754 14.1989 516.347 14.2912 515.968 14.419C515.594 14.5421 515.291 14.7292 515.059 14.9801C514.832 15.2263 514.718 15.5625 514.718 15.9886C514.718 16.571 514.934 17.0114 515.365 17.3097C515.8 17.6032 516.352 17.75 517.02 17.75ZM529.567 8.09091V9.51136H523.914V8.09091H529.567ZM525.562 5.47727H527.238V15.875C527.238 16.3485 527.307 16.7036 527.444 16.9403C527.586 17.1723 527.766 17.3286 527.984 17.4091C528.206 17.4848 528.441 17.5227 528.687 17.5227C528.871 17.5227 529.023 17.5133 529.141 17.4943C529.26 17.4706 529.354 17.4517 529.425 17.4375L529.766 18.9432C529.653 18.9858 529.494 19.0284 529.29 19.071C529.087 19.1184 528.829 19.142 528.516 19.142C528.043 19.142 527.579 19.0402 527.124 18.8366C526.674 18.633 526.3 18.3229 526.002 17.9062C525.709 17.4896 525.562 16.964 525.562 16.3295V5.47727ZM538.964 14.5398V8.09091H540.64V19H538.964V17.1534H538.85C538.594 17.7074 538.197 18.1785 537.657 18.5668C537.117 18.9503 536.435 19.142 535.612 19.142C534.93 19.142 534.324 18.9929 533.793 18.6946C533.263 18.3916 532.846 17.937 532.543 17.331C532.24 16.7202 532.089 15.9508 532.089 15.0227V8.09091H533.765V14.9091C533.765 15.7045 533.987 16.339 534.433 16.8125C534.882 17.286 535.455 17.5227 536.151 17.5227C536.568 17.5227 536.992 17.4162 537.423 17.2031C537.858 16.9901 538.223 16.6634 538.516 16.223C538.815 15.7827 538.964 15.2216 538.964 14.5398ZM543.71 19V8.09091H545.329V9.73864H545.443C545.642 9.19886 546.002 8.76089 546.522 8.42472C547.043 8.08854 547.63 7.92045 548.284 7.92045C548.407 7.92045 548.561 7.92282 548.745 7.92756C548.93 7.93229 549.07 7.93939 549.164 7.94886V9.65341C549.108 9.6392 548.977 9.6179 548.774 9.58949C548.575 9.55634 548.364 9.53977 548.142 9.53977C547.611 9.53977 547.138 9.65104 546.721 9.87358C546.309 10.0914 545.983 10.3944 545.741 10.7827C545.504 11.1662 545.386 11.6042 545.386 12.0966V19H543.71ZM555.393 19.2273C554.342 19.2273 553.435 18.9953 552.673 18.5312C551.915 18.0625 551.331 17.4091 550.919 16.571C550.511 15.7282 550.308 14.7481 550.308 13.6307C550.308 12.5133 550.511 11.5284 550.919 10.6761C551.331 9.81913 551.904 9.15152 552.637 8.6733C553.376 8.19034 554.238 7.94886 555.223 7.94886C555.791 7.94886 556.352 8.04356 556.906 8.23295C557.46 8.42235 557.964 8.73011 558.419 9.15625C558.873 9.57765 559.235 10.1364 559.505 10.8324C559.775 11.5284 559.91 12.3854 559.91 13.4034V14.1136H551.501V12.6648H558.206C558.206 12.0492 558.083 11.5 557.836 11.017C557.595 10.5341 557.249 10.1529 556.799 9.87358C556.354 9.59422 555.829 9.45455 555.223 9.45455C554.555 9.45455 553.977 9.62026 553.49 9.9517C553.007 10.2784 552.635 10.7045 552.375 11.2301C552.114 11.7557 551.984 12.3191 551.984 12.9205V13.8864C551.984 14.7102 552.126 15.4086 552.41 15.9815C552.699 16.5497 553.099 16.983 553.61 17.2812C554.122 17.5748 554.716 17.7216 555.393 17.7216C555.833 17.7216 556.231 17.66 556.586 17.5369C556.946 17.4091 557.256 17.2197 557.517 16.9688C557.777 16.7131 557.978 16.3958 558.12 16.017L559.74 16.4716C559.569 17.0208 559.283 17.5038 558.88 17.9205C558.478 18.3324 557.981 18.6544 557.389 18.8864C556.797 19.1136 556.132 19.2273 555.393 19.2273ZM568.085 19V8.09091H569.761V19H568.085ZM568.937 6.27273C568.61 6.27273 568.329 6.16146 568.092 5.93892C567.86 5.71638 567.744 5.44886 567.744 5.13636C567.744 4.82386 567.86 4.55634 568.092 4.33381C568.329 4.11127 568.61 4 568.937 4C569.264 4 569.543 4.11127 569.775 4.33381C570.012 4.55634 570.13 4.82386 570.13 5.13636C570.13 5.44886 570.012 5.71638 569.775 5.93892C569.543 6.16146 569.264 6.27273 568.937 6.27273ZM574.507 12.4375V19H572.831V8.09091H574.45V9.79545H574.592C574.848 9.24148 575.236 8.7964 575.757 8.46023C576.278 8.11932 576.95 7.94886 577.774 7.94886C578.513 7.94886 579.159 8.10038 579.713 8.40341C580.267 8.7017 580.698 9.15625 581.006 9.76705C581.313 10.3731 581.467 11.1402 581.467 12.0682V19H579.791V12.1818C579.791 11.3248 579.569 10.6572 579.124 10.179C578.679 9.69602 578.068 9.45455 577.291 9.45455C576.756 9.45455 576.278 9.57055 575.857 9.80256C575.44 10.0346 575.111 10.3731 574.869 10.8182C574.628 11.2633 574.507 11.803 574.507 12.4375ZM593.365 19.2557C592.674 19.2557 592.047 19.1255 591.483 18.8651C590.92 18.5999 590.472 18.2188 590.141 17.7216C589.81 17.2197 589.644 16.6136 589.644 15.9034C589.644 15.2784 589.767 14.7718 590.013 14.3835C590.259 13.9905 590.588 13.6828 591 13.4602C591.412 13.2377 591.867 13.072 592.364 12.9631C592.866 12.8494 593.37 12.7595 593.877 12.6932C594.54 12.608 595.077 12.544 595.489 12.5014C595.906 12.4541 596.209 12.3759 596.398 12.267C596.592 12.1581 596.689 11.9687 596.689 11.6989V11.642C596.689 10.9413 596.498 10.3968 596.114 10.0085C595.735 9.62027 595.16 9.42614 594.388 9.42614C593.588 9.42614 592.961 9.60133 592.506 9.9517C592.051 10.3021 591.732 10.6761 591.547 11.0739L589.956 10.5057C590.24 9.8428 590.619 9.3267 591.093 8.95739C591.571 8.58333 592.092 8.32292 592.655 8.17614C593.223 8.02462 593.782 7.94886 594.331 7.94886C594.682 7.94886 595.084 7.99148 595.539 8.0767C595.998 8.1572 596.441 8.32528 596.867 8.58097C597.298 8.83665 597.655 9.22254 597.939 9.73864C598.223 10.2547 598.365 10.946 598.365 11.8125V19H596.689V17.5227H596.604C596.49 17.7595 596.301 18.0128 596.036 18.2827C595.771 18.5526 595.418 18.7822 594.978 18.9716C594.537 19.161 594 19.2557 593.365 19.2557ZM593.621 17.75C594.284 17.75 594.843 17.6198 595.297 17.3594C595.757 17.099 596.102 16.7628 596.334 16.3509C596.571 15.9389 596.689 15.5057 596.689 15.0511V13.517C596.618 13.6023 596.462 13.6804 596.221 13.7514C595.984 13.8177 595.709 13.8769 595.397 13.929C595.089 13.9763 594.788 14.0189 594.495 14.0568C594.206 14.09 593.971 14.1184 593.792 14.142C593.356 14.1989 592.949 14.2912 592.57 14.419C592.196 14.5421 591.893 14.7292 591.661 14.9801C591.434 15.2263 591.32 15.5625 591.32 15.9886C591.32 16.571 591.535 17.0114 591.966 17.3097C592.402 17.6032 592.953 17.75 593.621 17.75ZM611.908 8.09091V9.51136H606.027V8.09091H611.908ZM607.788 19V6.58523C607.788 5.96023 607.935 5.43939 608.229 5.02273C608.522 4.60606 608.903 4.29356 609.372 4.08523C609.841 3.87689 610.336 3.77273 610.857 3.77273C611.268 3.77273 611.605 3.80587 611.865 3.87216C612.125 3.93845 612.32 4 612.447 4.05682L611.964 5.50568C611.879 5.47727 611.761 5.44176 611.609 5.39915C611.463 5.35653 611.268 5.33523 611.027 5.33523C610.473 5.33523 610.073 5.4749 609.827 5.75426C609.585 6.03362 609.464 6.44318 609.464 6.98295V19H607.788ZM618.381 19.2273C617.33 19.2273 616.424 18.9953 615.661 18.5312C614.904 18.0625 614.319 17.4091 613.907 16.571C613.5 15.7282 613.296 14.7481 613.296 13.6307C613.296 12.5133 613.5 11.5284 613.907 10.6761C614.319 9.81913 614.892 9.15152 615.626 8.6733C616.364 8.19034 617.226 7.94886 618.211 7.94886C618.779 7.94886 619.34 8.04356 619.894 8.23295C620.448 8.42235 620.952 8.73011 621.407 9.15625C621.862 9.57765 622.224 10.1364 622.494 10.8324C622.763 11.5284 622.898 12.3854 622.898 13.4034V14.1136H614.489V12.6648H621.194C621.194 12.0492 621.071 11.5 620.825 11.017C620.583 10.5341 620.237 10.1529 619.788 9.87358C619.343 9.59422 618.817 9.45455 618.211 9.45455C617.543 9.45455 616.966 9.62026 616.478 9.9517C615.995 10.2784 615.623 10.7045 615.363 11.2301C615.103 11.7557 614.972 12.3191 614.972 12.9205V13.8864C614.972 14.7102 615.114 15.4086 615.398 15.9815C615.687 16.5497 616.087 16.983 616.599 17.2812C617.11 17.5748 617.704 17.7216 618.381 17.7216C618.822 17.7216 619.219 17.66 619.575 17.5369C619.934 17.4091 620.245 17.2197 620.505 16.9688C620.765 16.7131 620.967 16.3958 621.109 16.017L622.728 16.4716C622.558 17.0208 622.271 17.5038 621.869 17.9205C621.466 18.3324 620.969 18.6544 620.377 18.8864C619.785 19.1136 619.12 19.2273 618.381 19.2273ZM627.92 19L624.596 8.09091H626.357L628.715 16.4432H628.829L631.158 8.09091H632.948L635.249 16.4148H635.363L637.721 8.09091H639.482L636.158 19H634.511L632.124 10.6193H631.954L629.567 19H627.92ZM647.323 19V8.09091H648.942V9.79545H649.085C649.312 9.21307 649.679 8.76089 650.185 8.43892C650.692 8.11222 651.3 7.94886 652.011 7.94886C652.73 7.94886 653.329 8.11222 653.808 8.43892C654.29 8.76089 654.667 9.21307 654.937 9.79545H655.05C655.33 9.23201 655.749 8.78456 656.308 8.45312C656.866 8.11695 657.536 7.94886 658.317 7.94886C659.293 7.94886 660.091 8.25426 660.711 8.86506C661.331 9.47112 661.641 10.4157 661.641 11.6989V19H659.965V11.6989C659.965 10.8939 659.745 10.3187 659.305 9.97301C658.864 9.62737 658.346 9.45455 657.749 9.45455C656.982 9.45455 656.388 9.68655 655.967 10.1506C655.545 10.6098 655.335 11.1922 655.335 11.8977V19H653.63V11.5284C653.63 10.9081 653.429 10.4086 653.026 10.0298C652.624 9.64631 652.105 9.45455 651.471 9.45455C651.035 9.45455 650.628 9.57055 650.249 9.80256C649.875 10.0346 649.572 10.3565 649.34 10.7685C649.113 11.1757 648.999 11.6468 648.999 12.1818V19H647.323ZM664.706 19V8.09091H666.382V19H664.706ZM665.558 6.27273C665.232 6.27273 664.95 6.16146 664.713 5.93892C664.481 5.71638 664.365 5.44886 664.365 5.13636C664.365 4.82386 664.481 4.55634 664.713 4.33381C664.95 4.11127 665.232 4 665.558 4C665.885 4 666.164 4.11127 666.396 4.33381C666.633 4.55634 666.751 4.82386 666.751 5.13636C666.751 5.44886 666.633 5.71638 666.396 5.93892C666.164 6.16146 665.885 6.27273 665.558 6.27273ZM671.128 12.4375V19H669.452V8.09091H671.071V9.79545H671.213C671.469 9.24148 671.857 8.7964 672.378 8.46023C672.899 8.11932 673.571 7.94886 674.395 7.94886C675.134 7.94886 675.78 8.10038 676.334 8.40341C676.888 8.7017 677.319 9.15625 677.627 9.76705C677.935 10.3731 678.088 11.1402 678.088 12.0682V19H676.412V12.1818C676.412 11.3248 676.19 10.6572 675.745 10.179C675.3 9.69602 674.689 9.45455 673.912 9.45455C673.377 9.45455 672.899 9.57055 672.478 9.80256C672.061 10.0346 671.732 10.3731 671.49 10.8182C671.249 11.2633 671.128 11.803 671.128 12.4375ZM688.026 14.5398V8.09091H689.702V19H688.026V17.1534H687.913C687.657 17.7074 687.259 18.1785 686.719 18.5668C686.18 18.9503 685.498 19.142 684.674 19.142C683.992 19.142 683.386 18.9929 682.856 18.6946C682.326 18.3916 681.909 17.937 681.606 17.331C681.303 16.7202 681.151 15.9508 681.151 15.0227V8.09091H682.827V14.9091C682.827 15.7045 683.05 16.339 683.495 16.8125C683.945 17.286 684.518 17.5227 685.214 17.5227C685.63 17.5227 686.054 17.4162 686.485 17.2031C686.921 16.9901 687.285 16.6634 687.579 16.223C687.877 15.7827 688.026 15.2216 688.026 14.5398ZM697.517 8.09091V9.51136H691.863V8.09091H697.517ZM693.511 5.47727H695.187V15.875C695.187 16.3485 695.256 16.7036 695.393 16.9403C695.535 17.1723 695.715 17.3286 695.933 17.4091C696.155 17.4848 696.39 17.5227 696.636 17.5227C696.821 17.5227 696.972 17.5133 697.091 17.4943C697.209 17.4706 697.304 17.4517 697.375 17.4375L697.716 18.9432C697.602 18.9858 697.443 19.0284 697.24 19.071C697.036 19.1184 696.778 19.142 696.466 19.142C695.992 19.142 695.528 19.0402 695.074 18.8366C694.624 18.633 694.25 18.3229 693.951 17.9062C693.658 17.4896 693.511 16.964 693.511 16.3295V5.47727ZM704.495 19.2273C703.444 19.2273 702.537 18.9953 701.775 18.5312C701.017 18.0625 700.432 17.4091 700.02 16.571C699.613 15.7282 699.409 14.7481 699.409 13.6307C699.409 12.5133 699.613 11.5284 700.02 10.6761C700.432 9.81913 701.005 9.15152 701.739 8.6733C702.478 8.19034 703.339 7.94886 704.324 7.94886C704.892 7.94886 705.453 8.04356 706.007 8.23295C706.561 8.42235 707.066 8.73011 707.52 9.15625C707.975 9.57765 708.337 10.1364 708.607 10.8324C708.877 11.5284 709.012 12.3854 709.012 13.4034V14.1136H700.603V12.6648H707.307C707.307 12.0492 707.184 11.5 706.938 11.017C706.696 10.5341 706.351 10.1529 705.901 9.87358C705.456 9.59422 704.93 9.45455 704.324 9.45455C703.657 9.45455 703.079 9.62026 702.591 9.9517C702.108 10.2784 701.737 10.7045 701.476 11.2301C701.216 11.7557 701.086 12.3191 701.086 12.9205V13.8864C701.086 14.7102 701.228 15.4086 701.512 15.9815C701.801 16.5497 702.201 16.983 702.712 17.2812C703.223 17.5748 703.818 17.7216 704.495 17.7216C704.935 17.7216 705.333 17.66 705.688 17.5369C706.048 17.4091 706.358 17.2197 706.618 16.9688C706.879 16.7131 707.08 16.3958 707.222 16.017L708.841 16.4716C708.671 17.0208 708.384 17.5038 707.982 17.9205C707.579 18.3324 707.082 18.6544 706.49 18.8864C705.899 19.1136 705.233 19.2273 704.495 19.2273ZM719.289 10.5341L717.783 10.9602C717.688 10.7093 717.549 10.4654 717.364 10.2287C717.184 9.98722 716.938 9.78835 716.625 9.6321C716.313 9.47585 715.913 9.39773 715.425 9.39773C714.757 9.39773 714.201 9.55161 713.756 9.85938C713.316 10.1624 713.096 10.5483 713.096 11.017C713.096 11.4337 713.247 11.7628 713.55 12.0043C713.853 12.2457 714.327 12.447 714.971 12.608L716.59 13.0057C717.565 13.2424 718.292 13.6046 718.77 14.0923C719.248 14.5753 719.488 15.1979 719.488 15.9602C719.488 16.5852 719.308 17.1439 718.948 17.6364C718.593 18.1288 718.096 18.517 717.456 18.8011C716.817 19.0852 716.074 19.2273 715.226 19.2273C714.114 19.2273 713.193 18.9858 712.463 18.5028C711.734 18.0199 711.273 17.3144 711.078 16.3864L712.669 15.9886C712.821 16.5758 713.107 17.0161 713.529 17.3097C713.955 17.6032 714.511 17.75 715.198 17.75C715.979 17.75 716.599 17.5843 717.059 17.2528C717.523 16.9167 717.755 16.5142 717.755 16.0455C717.755 15.6667 717.622 15.3494 717.357 15.0938C717.092 14.8333 716.685 14.6392 716.135 14.5114L714.317 14.0852C713.318 13.8485 712.584 13.4815 712.115 12.9844C711.651 12.4825 711.419 11.8551 711.419 11.1023C711.419 10.4867 711.592 9.94223 711.938 9.46875C712.288 8.99527 712.764 8.62358 713.365 8.35369C713.971 8.08381 714.658 7.94886 715.425 7.94886C716.505 7.94886 717.352 8.18561 717.968 8.65909C718.588 9.13258 719.028 9.75758 719.289 10.5341ZM723.232 19.1136C722.882 19.1136 722.581 18.9882 722.33 18.7372C722.079 18.4863 721.954 18.1856 721.954 17.8352C721.954 17.4848 722.079 17.1842 722.33 16.9332C722.581 16.6823 722.882 16.5568 723.232 16.5568C723.583 16.5568 723.883 16.6823 724.134 16.9332C724.385 17.1842 724.511 17.4848 724.511 17.8352C724.511 18.0672 724.451 18.2803 724.333 18.4744C724.219 18.6686 724.066 18.8248 723.871 18.9432C723.682 19.0568 723.469 19.1136 723.232 19.1136Z" fill="white"/>
<mask id="path-2-inside-1_21_349" fill="white">
<path d="M42 92C42 77.6406 53.6406 66 68 66H906C920.359 66 932 77.6406 932 92V486H42V92Z"/>
</mask>
<path d="M41 92C41 77.0883 53.0883 65 68 65H906C920.912 65 933 77.0883 933 92H931C931 78.1929 919.807 67 906 67H68C54.1929 67 43 78.1929 43 92H41ZM932 486H42H932ZM41 486V92C41 77.0883 53.0883 65 68 65V67C54.1929 67 43 78.1929 43 92V486H41ZM906 65C920.912 65 933 77.0883 933 92V486H931V92C931 78.1929 919.807 67 906 67V65Z" fill="url(#paint0_linear_21_349)" mask="url(#path-2-inside-1_21_349)"/>
<line x1="201.5" y1="486.004" x2="201.5" y2="66" stroke="url(#paint1_linear_21_349)"/>
<circle cx="883" cy="115" r="15" fill="#F5F5F5" fill-opacity="0.25"/>
<rect x="738" y="107" width="110" height="16" rx="8" fill="#F5F5F5" fill-opacity="0.25"/>
<rect x="66" y="157" width="110" height="16" rx="8" fill="#F5F5F5" fill-opacity="0.25"/>
<rect x="66" y="201" width="110" height="16" rx="8" fill="#F5F5F5" fill-opacity="0.25"/>
<rect x="66" y="245" width="110" height="16" rx="8" fill="#F5F5F5" fill-opacity="0.25"/>
<rect x="728.5" y="157.5" width="169" height="169" rx="19.5" stroke="#F5F5F5"/>
<path d="M819.375 196.192C819.661 194.14 821.56 192.695 823.584 193.133C829.184 194.346 834.544 196.515 839.424 199.553C845.367 203.253 850.468 208.159 854.394 213.955C858.321 219.751 860.987 226.307 862.219 233.199C863.231 238.858 863.258 244.64 862.308 250.29C861.965 252.333 859.918 253.56 857.907 253.065C855.896 252.569 854.685 250.538 855.001 248.492C855.716 243.865 855.663 239.144 854.836 234.519C853.789 228.661 851.523 223.089 848.185 218.162C844.847 213.235 840.512 209.065 835.46 205.92C831.472 203.437 827.107 201.637 822.545 200.586C820.527 200.121 819.09 198.243 819.375 196.192Z" fill="#F4FF81"/>
<path d="M856.435 257.89C858.38 258.602 859.392 260.763 858.537 262.649C855.261 269.873 850.305 276.232 844.061 281.182C836.835 286.91 828.166 290.529 819.012 291.637C809.857 292.746 800.575 291.302 792.19 287.464C783.806 283.626 776.646 277.544 771.502 269.891C766.358 262.238 763.431 253.311 763.044 244.098C762.657 234.885 764.825 225.745 769.309 217.687C773.793 209.63 780.418 202.969 788.451 198.442C795.392 194.529 803.152 192.342 811.078 192.037C813.148 191.957 814.766 193.711 814.69 195.781C814.615 197.851 812.873 199.45 810.805 199.557C804.263 199.895 797.869 201.742 792.133 204.975C785.305 208.824 779.674 214.485 775.863 221.334C772.052 228.183 770.208 235.953 770.537 243.784C770.866 251.615 773.355 259.202 777.727 265.707C782.099 272.213 788.185 277.382 795.312 280.644C802.439 283.906 810.329 285.134 818.11 284.192C825.891 283.249 833.26 280.174 839.402 275.304C844.562 271.214 848.687 265.992 851.471 260.062C852.351 258.187 854.49 257.179 856.435 257.89Z" fill="#81F5FF"/>
<rect x="236.5" y="157.5" width="457" height="169" rx="19.5" stroke="#F5F5F5"/>
<mask id="path-14-inside-2_21_349" fill="white">
<path d="M236 381C236 369.954 244.954 361 256 361H878C889.046 361 898 369.954 898 381V486H236V381Z"/>
</mask>
<path d="M235 381C235 369.402 244.402 360 256 360H878C889.598 360 899 369.402 899 381H897C897 370.507 888.493 362 878 362H256C245.507 362 237 370.507 237 381H235ZM898 486H236H898ZM235 486V381C235 369.402 244.402 360 256 360V362C245.507 362 237 370.507 237 381V486H235ZM878 360C889.598 360 899 369.402 899 381V486H897V381C897 370.507 888.493 362 878 362V360Z" fill="url(#paint2_linear_21_349)" mask="url(#path-14-inside-2_21_349)"/>
<line x1="258.295" y1="178.75" x2="673.94" y2="178.75" stroke="#C0C0C0" stroke-opacity="0.35" stroke-width="0.5"/>
<line x1="258.295" y1="217.75" x2="673.94" y2="217.75" stroke="#C0C0C0" stroke-opacity="0.35" stroke-width="0.5"/>
<line x1="258.295" y1="198.25" x2="673.94" y2="198.25" stroke="#C0C0C0" stroke-opacity="0.35" stroke-width="0.5"/>
<line x1="258.295" y1="256.75" x2="673.94" y2="256.75" stroke="#C0C0C0" stroke-opacity="0.35" stroke-width="0.5"/>
<line x1="258.295" y1="237.25" x2="673.94" y2="237.25" stroke="#C0C0C0" stroke-opacity="0.35" stroke-width="0.5"/>
<line x1="258.295" y1="276.25" x2="673.94" y2="276.25" stroke="#C0C0C0" stroke-opacity="0.35" stroke-width="0.5"/>
<line x1="258.295" y1="295.75" x2="673.94" y2="295.75" stroke="#C0C0C0" stroke-opacity="0.35" stroke-width="0.5"/>
<path d="M332.5 243.413C303.093 243.51 294.12 260.278 257 259.446V296H673.5V237H590.5C565 237 553.5 243.413 535 249.505C516.5 255.598 491 266.821 469.5 266.821C448 266.821 425.5 260.728 401 253.674C376.5 246.62 366.079 243.303 332.5 243.413Z" fill="url(#paint3_linear_21_349)"/>
<path d="M257 259.446C294.12 260.278 303.093 243.51 332.5 243.413C366.079 243.303 376.5 246.62 401 253.674C425.5 260.728 448 266.821 469.5 266.821C491 266.821 516.5 255.598 535 249.505C553.5 243.413 565 237 590.5 237C616 237 648 237 673.5 237" stroke="#F4FF81" stroke-width="2" stroke-linecap="round" stroke-linejoin="round"/>
<path d="M323.784 224.752C294.377 224.903 293.12 214.74 256 213.443V296H674V227.518C653.557 230.299 609.747 224.752 586.211 224.752C562.675 224.752 518.595 237.268 500.304 237.268C482.013 237.268 464.059 234.018 450.172 226.821C436.286 219.625 428.956 215.214 400.982 215.214C373.008 215.214 357.363 224.58 323.784 224.752Z" fill="url(#paint4_linear_21_349)"/>
<path d="M256 213.443C293.12 214.74 294.377 224.903 323.784 224.752C357.363 224.58 372.772 214.982 400.747 214.982C428.721 214.982 436.757 220.654 460.293 230.768C483.829 240.882 503.364 236.803 525.017 233.786C546.67 230.768 574.678 224.752 589.976 224.752C605.275 224.752 653.557 230.067 674 227.286" stroke="#81F5FF" stroke-width="2" stroke-linecap="round" stroke-linejoin="round"/>
<g filter="url(#filter0_d_21_349)">
<circle cx="590" cy="225" r="8" fill="#81F5FF"/>
<circle cx="590" cy="225" r="6.5" stroke="#F5F5F5" stroke-width="3"/>
</g>
<line x1="589.75" y1="296" x2="589.75" y2="233" stroke="url(#paint5_linear_21_349)" stroke-width="0.5" stroke-dasharray="1 1"/>
<defs>
<filter id="filter0_d_21_349" x="573" y="211" width="34" height="34" filterUnits="userSpaceOnUse" color-interpolation-filters="sRGB">
<feFlood flood-opacity="0" result="BackgroundImageFix"/>
<feColorMatrix in="SourceAlpha" type="matrix" values="0 0 0 0 0 0 0 0 0 0 0 0 0 0 0 0 0 0 127 0" result="hardAlpha"/>
<feOffset dy="3"/>
<feGaussianBlur stdDeviation="4.5"/>
<feComposite in2="hardAlpha" operator="out"/>
<feColorMatrix type="matrix" values="0 0 0 0 0.505882 0 0 0 0 0.960784 0 0 0 0 1 0 0 0 0.5 0"/>
<feBlend mode="normal" in2="BackgroundImageFix" result="effect1_dropShadow_21_349"/>
<feBlend mode="normal" in="SourceGraphic" in2="effect1_dropShadow_21_349" result="shape"/>
</filter>
<linearGradient id="paint0_linear_21_349" x1="487" y1="434" x2="487" y2="486" gradientUnits="userSpaceOnUse">
<stop stop-color="#F5F5F5"/>
<stop offset="1" stop-color="#F5F5F5" stop-opacity="0"/>
</linearGradient>
<linearGradient id="paint1_linear_21_349" x1="202" y1="432.5" x2="202" y2="486" gradientUnits="userSpaceOnUse">
<stop stop-color="#F5F5F5"/>
<stop offset="1" stop-color="#F5F5F5" stop-opacity="0"/>
</linearGradient>
<linearGradient id="paint2_linear_21_349" x1="567" y1="434" x2="567" y2="486" gradientUnits="userSpaceOnUse">
<stop stop-color="#F5F5F5"/>
<stop offset="1" stop-color="#F5F5F5" stop-opacity="0"/>
</linearGradient>
<linearGradient id="paint3_linear_21_349" x1="465.25" y1="237" x2="465.25" y2="296" gradientUnits="userSpaceOnUse">
<stop stop-color="#F4FF81" stop-opacity="0.2"/>
<stop offset="1" stop-color="#F4FF81" stop-opacity="0.05"/>
</linearGradient>
<linearGradient id="paint4_linear_21_349" x1="465" y1="218.969" x2="465" y2="296" gradientUnits="userSpaceOnUse">
<stop stop-color="#81F5FF" stop-opacity="0.3"/>
<stop offset="1" stop-color="#81F5FF" stop-opacity="0.05"/>
</linearGradient>
<linearGradient id="paint5_linear_21_349" x1="589.5" y1="251.284" x2="589.5" y2="295.118" gradientUnits="userSpaceOnUse">
<stop stop-color="#C0C0C0"/>
<stop offset="1" stop-color="#C0C0C0" stop-opacity="0"/>
</linearGradient>
</defs>
</svg>
