<svg width="830" height="336" viewBox="0 0 830 336" fill="none" xmlns="http://www.w3.org/2000/svg">
<g clip-path="url(#clip0_60_444)">
<rect width="830" height="336" fill="black"/>
<line x1="46" y1="11.75" x2="829" y2="11.75" stroke="#C0C0C0" stroke-opacity="0.35" stroke-width="0.5"/>
<line x1="46" y1="95.75" x2="829" y2="95.75" stroke="#C0C0C0" stroke-opacity="0.35" stroke-width="0.5"/>
<line x1="46" y1="53.75" x2="829" y2="53.75" stroke="#C0C0C0" stroke-opacity="0.35" stroke-width="0.5"/>
<line x1="46" y1="179.75" x2="829" y2="179.75" stroke="#C0C0C0" stroke-opacity="0.35" stroke-width="0.5"/>
<line x1="46" y1="137.75" x2="829" y2="137.75" stroke="#C0C0C0" stroke-opacity="0.35" stroke-width="0.5"/>
<line x1="46" y1="221.75" x2="829" y2="221.75" stroke="#C0C0C0" stroke-opacity="0.35" stroke-width="0.5"/>
<line x1="46" y1="263.75" x2="829" y2="263.75" stroke="#C0C0C0" stroke-opacity="0.35" stroke-width="0.5"/>
<path d="M184.794 151.696C129.176 151.902 112.205 187.712 42 185.935V264H829.729V138H672.751C624.523 138 602.772 151.696 567.783 164.707C532.794 177.717 484.566 201.685 443.903 201.685C403.24 201.685 360.685 188.674 314.348 173.609C268.011 158.544 248.302 151.46 184.794 151.696Z" fill="url(#paint0_linear_60_444)"/>
<path d="M42 185.935C112.205 187.712 129.176 151.902 184.794 151.696C248.302 151.46 268.011 158.544 314.348 173.609C360.685 188.674 403.24 201.685 443.903 201.685C484.566 201.685 532.794 177.717 567.783 164.707C602.772 151.696 624.523 138 672.751 138C720.979 138 781.501 138 829.729 138" stroke="#F4FF81" stroke-width="2" stroke-linecap="round" stroke-linejoin="round"/>
<path d="M169.37 110.543C113.972 110.867 111.604 88.9796 41.6774 86.1843V264H829.113V116.5C790.603 122.49 708.072 110.543 663.734 110.543C619.396 110.543 536.358 137.5 501.902 137.5C467.445 137.5 433.622 130.5 407.463 115C381.303 99.5 367.495 90.0001 314.797 90C262.099 89.9999 232.626 110.172 169.37 110.543Z" fill="url(#paint1_linear_60_444)"/>
<path d="M41.6774 86.1843C111.604 88.9796 113.972 110.867 169.37 110.543C232.626 110.172 261.655 89.4999 314.354 89.5C367.052 89.5001 382.19 101.716 426.528 123.5C470.865 145.284 507.666 136.5 548.456 130C589.247 123.5 642.009 110.543 670.828 110.543C699.647 110.543 790.603 121.99 829.113 116" stroke="#81F5FF" stroke-width="2" stroke-linecap="round" stroke-linejoin="round"/>
<rect x="647" y="272" width="60" height="60" rx="15" fill="#81F5FF" fill-opacity="0.2"/>
<path d="M55.4375 297V285.727H57.0703L60.9297 295.133H61.0547L64.9141 285.727H66.5469V297H65.2344V288.391H64.5469L66.125 286.039L61.5859 297H60.3984L55.8672 286.039L57.4375 288.391H56.75V297H55.4375ZM72.7109 297.148C71.9141 297.148 71.224 296.974 70.6406 296.625C70.0625 296.271 69.6146 295.768 69.2969 295.117C68.9844 294.466 68.8281 293.693 68.8281 292.797V292.781C68.8281 291.88 68.9844 291.104 69.2969 290.453C69.6146 289.802 70.0625 289.302 70.6406 288.953C71.224 288.604 71.9141 288.43 72.7109 288.43C73.513 288.43 74.2031 288.604 74.7812 288.953C75.3594 289.302 75.8047 289.802 76.1172 290.453C76.4349 291.104 76.5938 291.88 76.5938 292.781V292.797C76.5938 293.693 76.4349 294.466 76.1172 295.117C75.8047 295.768 75.3594 296.271 74.7812 296.625C74.2031 296.974 73.513 297.148 72.7109 297.148ZM72.7109 295.945C73.2422 295.945 73.6927 295.82 74.0625 295.57C74.4323 295.32 74.7135 294.961 74.9062 294.492C75.1042 294.023 75.2031 293.458 75.2031 292.797V292.781C75.2031 292.115 75.1042 291.547 74.9062 291.078C74.7135 290.609 74.4323 290.253 74.0625 290.008C73.6927 289.758 73.2422 289.633 72.7109 289.633C72.1797 289.633 71.7292 289.758 71.3594 290.008C70.9896 290.253 70.7057 290.609 70.5078 291.078C70.3151 291.547 70.2188 292.115 70.2188 292.781V292.797C70.2188 293.458 70.3151 294.023 70.5078 294.492C70.7057 294.961 70.9896 295.32 71.3594 295.57C71.7292 295.82 72.1797 295.945 72.7109 295.945ZM78.7031 297V288.578H80.0625V289.844H80.1875C80.401 289.396 80.7083 289.049 81.1094 288.805C81.5104 288.555 82.0208 288.43 82.6406 288.43C83.5885 288.43 84.3151 288.701 84.8203 289.242C85.3307 289.779 85.5859 290.547 85.5859 291.547V297H84.2266V291.875C84.2266 291.115 84.0651 290.552 83.7422 290.188C83.4245 289.818 82.9297 289.633 82.2578 289.633C81.8099 289.633 81.4219 289.729 81.0938 289.922C80.7656 290.115 80.5104 290.388 80.3281 290.742C80.151 291.096 80.0625 291.521 80.0625 292.016V297H78.7031Z" fill="#F5F5F5"/>
<path d="M57.0117 320V312.717H56.918L54.7676 314.275V313.162L57.0176 311.545H58.0664V320H57.0117ZM63.3398 320.199C62.7148 320.199 62.1797 320.02 61.7344 319.66C61.293 319.301 60.9531 318.791 60.7148 318.131C60.4766 317.467 60.3574 316.682 60.3574 315.775V315.764C60.3574 314.857 60.4766 314.074 60.7148 313.414C60.9531 312.754 61.293 312.244 61.7344 311.885C62.1797 311.525 62.7148 311.346 63.3398 311.346C63.9648 311.346 64.5 311.525 64.9453 311.885C65.3906 312.244 65.7324 312.754 65.9707 313.414C66.2129 314.074 66.334 314.857 66.334 315.764V315.775C66.334 316.682 66.2129 317.467 65.9707 318.131C65.7324 318.791 65.3906 319.301 64.9453 319.66C64.5 320.02 63.9648 320.199 63.3398 320.199ZM63.3398 319.279C63.7461 319.279 64.0918 319.137 64.377 318.852C64.666 318.566 64.8867 318.162 65.0391 317.639C65.1953 317.115 65.2734 316.494 65.2734 315.775V315.764C65.2734 315.045 65.1953 314.426 65.0391 313.906C64.8867 313.383 64.666 312.98 64.377 312.699C64.0918 312.414 63.7461 312.271 63.3398 312.271C62.9375 312.271 62.5918 312.414 62.3027 312.699C62.0176 312.98 61.7988 313.383 61.6465 313.906C61.4941 314.426 61.418 315.045 61.418 315.764V315.775C61.418 316.494 61.4941 317.115 61.6465 317.639C61.7988 318.162 62.0176 318.566 62.3027 318.852C62.5918 319.137 62.9375 319.279 63.3398 319.279ZM70.7754 311.176L68.1035 322.109H67.125L69.7969 311.176H70.7754ZM74.4902 311.346C74.877 311.346 75.2578 311.42 75.6328 311.568C76.0117 311.717 76.3535 311.957 76.6582 312.289C76.9668 312.621 77.2129 313.061 77.3965 313.607C77.5801 314.15 77.6719 314.82 77.6719 315.617V315.629C77.6719 316.59 77.543 317.412 77.2852 318.096C77.0273 318.775 76.6562 319.297 76.1719 319.66C75.6875 320.02 75.1035 320.199 74.4199 320.199C73.9473 320.199 73.5195 320.113 73.1367 319.941C72.7578 319.766 72.4414 319.521 72.1875 319.209C71.9336 318.896 71.7578 318.533 71.6602 318.119L71.6426 318.043H72.7031L72.7266 318.107C72.8125 318.342 72.9336 318.545 73.0898 318.717C73.25 318.889 73.4414 319.021 73.6641 319.115C73.8906 319.209 74.1465 319.256 74.4316 319.256C74.9434 319.256 75.3594 319.107 75.6797 318.811C76 318.51 76.2383 318.111 76.3945 317.615C76.5508 317.119 76.6387 316.578 76.6582 315.992C76.6621 315.938 76.6641 315.885 76.6641 315.834C76.6641 315.779 76.6641 315.727 76.6641 315.676L76.4121 314.27C76.4121 313.898 76.3262 313.562 76.1543 313.262C75.9863 312.961 75.7578 312.723 75.4688 312.547C75.1836 312.367 74.8613 312.277 74.502 312.277C74.1504 312.277 73.8301 312.365 73.541 312.541C73.252 312.713 73.0215 312.947 72.8496 313.244C72.6777 313.537 72.5918 313.867 72.5918 314.234V314.246C72.5918 314.621 72.6738 314.955 72.8379 315.248C73.002 315.537 73.2266 315.766 73.5117 315.934C73.7969 316.098 74.1211 316.18 74.4844 316.18C74.8516 316.18 75.1797 316.098 75.4688 315.934C75.7578 315.77 75.9863 315.545 76.1543 315.26C76.3262 314.971 76.4121 314.643 76.4121 314.275V314.27H76.7578V315.793H76.5527C76.4512 316.023 76.2949 316.238 76.084 316.438C75.877 316.637 75.623 316.797 75.3223 316.918C75.0254 317.039 74.6855 317.1 74.3027 317.1C73.7754 317.1 73.3027 316.977 72.8848 316.73C72.4668 316.484 72.1367 316.148 71.8945 315.723C71.6523 315.293 71.5312 314.809 71.5312 314.27V314.258C71.5312 313.695 71.6582 313.195 71.9121 312.758C72.1699 312.316 72.5215 311.971 72.9668 311.721C73.416 311.471 73.9238 311.346 74.4902 311.346Z" fill="#C0C0C0"/>
<path d="M180.224 297V286.992H176.592V285.727H185.263V286.992H181.631V297H180.224ZM188.912 297.148C188.276 297.148 187.743 297.029 187.31 296.789C186.878 296.544 186.552 296.19 186.334 295.727C186.12 295.258 186.013 294.693 186.013 294.031V288.578H187.373V293.703C187.373 294.458 187.519 295.021 187.81 295.391C188.107 295.76 188.592 295.945 189.263 295.945C189.633 295.945 189.959 295.891 190.24 295.781C190.526 295.672 190.766 295.516 190.959 295.312C191.151 295.104 191.295 294.854 191.388 294.562C191.487 294.266 191.537 293.932 191.537 293.562V288.578H192.896V297H191.537V295.742H191.412C191.276 296.039 191.092 296.294 190.857 296.508C190.623 296.716 190.342 296.875 190.013 296.984C189.69 297.094 189.323 297.148 188.912 297.148ZM198.873 297.148C198.071 297.148 197.381 296.971 196.802 296.617C196.23 296.263 195.787 295.763 195.474 295.117C195.167 294.466 195.013 293.701 195.013 292.82V292.812C195.013 291.943 195.167 291.18 195.474 290.523C195.787 289.867 196.227 289.354 196.795 288.984C197.362 288.615 198.026 288.43 198.787 288.43C199.552 288.43 200.209 288.607 200.756 288.961C201.308 289.315 201.73 289.81 202.021 290.445C202.318 291.076 202.467 291.81 202.467 292.648V293.18H195.717V292.094H201.771L201.099 293.086V292.547C201.099 291.885 201 291.341 200.802 290.914C200.605 290.487 200.331 290.169 199.982 289.961C199.633 289.747 199.232 289.641 198.779 289.641C198.326 289.641 197.92 289.753 197.56 289.977C197.206 290.195 196.925 290.521 196.717 290.953C196.508 291.385 196.404 291.917 196.404 292.547V293.086C196.404 293.685 196.506 294.198 196.709 294.625C196.912 295.047 197.201 295.372 197.576 295.602C197.951 295.826 198.394 295.938 198.904 295.938C199.284 295.938 199.615 295.885 199.896 295.781C200.177 295.677 200.409 295.544 200.592 295.383C200.774 295.221 200.901 295.057 200.974 294.891L201.006 294.82H202.365L202.349 294.883C202.276 295.169 202.146 295.448 201.959 295.719C201.776 295.984 201.539 296.227 201.248 296.445C200.956 296.659 200.61 296.831 200.209 296.961C199.813 297.086 199.368 297.148 198.873 297.148Z" fill="#F5F5F5"/>
<path d="M178.869 320V312.717H178.775L176.625 314.275V313.162L178.875 311.545H179.924V320H178.869ZM185.197 320.199C184.572 320.199 184.037 320.02 183.592 319.66C183.15 319.301 182.81 318.791 182.572 318.131C182.334 317.467 182.215 316.682 182.215 315.775V315.764C182.215 314.857 182.334 314.074 182.572 313.414C182.81 312.754 183.15 312.244 183.592 311.885C184.037 311.525 184.572 311.346 185.197 311.346C185.822 311.346 186.357 311.525 186.802 311.885C187.248 312.244 187.59 312.754 187.828 313.414C188.07 314.074 188.191 314.857 188.191 315.764V315.775C188.191 316.682 188.07 317.467 187.828 318.131C187.59 318.791 187.248 319.301 186.802 319.66C186.357 320.02 185.822 320.199 185.197 320.199ZM185.197 319.279C185.603 319.279 185.949 319.137 186.234 318.852C186.523 318.566 186.744 318.162 186.896 317.639C187.052 317.115 187.131 316.494 187.131 315.775V315.764C187.131 315.045 187.052 314.426 186.896 313.906C186.744 313.383 186.523 312.98 186.234 312.699C185.949 312.414 185.603 312.271 185.197 312.271C184.795 312.271 184.449 312.414 184.16 312.699C183.875 312.98 183.656 313.383 183.504 313.906C183.351 314.426 183.275 315.045 183.275 315.764V315.775C183.275 316.494 183.351 317.115 183.504 317.639C183.656 318.162 183.875 318.566 184.16 318.852C184.449 319.137 184.795 319.279 185.197 319.279ZM192.633 311.176L189.961 322.109H188.982L191.654 311.176H192.633ZM195.65 320V312.717H195.556L193.406 314.275V313.162L195.656 311.545H196.705V320H195.65ZM201.978 320.199C201.353 320.199 200.818 320.02 200.373 319.66C199.931 319.301 199.592 318.791 199.353 318.131C199.115 317.467 198.996 316.682 198.996 315.775V315.764C198.996 314.857 199.115 314.074 199.353 313.414C199.592 312.754 199.931 312.244 200.373 311.885C200.818 311.525 201.353 311.346 201.978 311.346C202.603 311.346 203.138 311.525 203.584 311.885C204.029 312.244 204.371 312.754 204.609 313.414C204.851 314.074 204.972 314.857 204.972 315.764V315.775C204.972 316.682 204.851 317.467 204.609 318.131C204.371 318.791 204.029 319.301 203.584 319.66C203.138 320.02 202.603 320.199 201.978 320.199ZM201.978 319.279C202.384 319.279 202.73 319.137 203.015 318.852C203.304 318.566 203.525 318.162 203.677 317.639C203.834 317.115 203.912 316.494 203.912 315.775V315.764C203.912 315.045 203.834 314.426 203.677 313.906C203.525 313.383 203.304 312.98 203.015 312.699C202.73 312.414 202.384 312.271 201.978 312.271C201.576 312.271 201.23 312.414 200.941 312.699C200.656 312.98 200.437 313.383 200.285 313.906C200.133 314.426 200.056 315.045 200.056 315.764V315.775C200.056 316.494 200.133 317.115 200.285 317.639C200.437 318.162 200.656 318.566 200.941 318.852C201.23 319.137 201.576 319.279 201.978 319.279Z" fill="#C0C0C0"/>
<path d="M301.488 297L298.417 285.727H299.886L302.128 294.891H302.222L304.746 285.727H306.167L308.691 294.891H308.785L311.027 285.727H312.496L309.425 297H308.097L305.503 288.102H305.41L302.816 297H301.488ZM317.121 297.148C316.318 297.148 315.628 296.971 315.05 296.617C314.477 296.263 314.035 295.763 313.722 295.117C313.415 294.466 313.261 293.701 313.261 292.82V292.812C313.261 291.943 313.415 291.18 313.722 290.523C314.035 289.867 314.475 289.354 315.042 288.984C315.61 288.615 316.274 288.43 317.035 288.43C317.8 288.43 318.456 288.607 319.003 288.961C319.555 289.315 319.977 289.81 320.269 290.445C320.566 291.076 320.714 291.81 320.714 292.648V293.18H313.964V292.094H320.019L319.347 293.086V292.547C319.347 291.885 319.248 291.341 319.05 290.914C318.852 290.487 318.579 290.169 318.23 289.961C317.881 289.747 317.48 289.641 317.027 289.641C316.574 289.641 316.167 289.753 315.808 289.977C315.454 290.195 315.173 290.521 314.964 290.953C314.756 291.385 314.652 291.917 314.652 292.547V293.086C314.652 293.685 314.753 294.198 314.956 294.625C315.16 295.047 315.449 295.372 315.824 295.602C316.199 295.826 316.641 295.938 317.152 295.938C317.532 295.938 317.863 295.885 318.144 295.781C318.425 295.677 318.657 295.544 318.839 295.383C319.022 295.221 319.149 295.057 319.222 294.891L319.253 294.82H320.613L320.597 294.883C320.524 295.169 320.394 295.448 320.206 295.719C320.024 295.984 319.787 296.227 319.496 296.445C319.204 296.659 318.858 296.831 318.456 296.961C318.061 297.086 317.615 297.148 317.121 297.148ZM325.933 297.148C325.225 297.148 324.605 296.969 324.074 296.609C323.542 296.25 323.131 295.745 322.839 295.094C322.548 294.438 322.402 293.672 322.402 292.797V292.781C322.402 291.901 322.548 291.135 322.839 290.484C323.131 289.833 323.54 289.328 324.066 288.969C324.597 288.609 325.22 288.43 325.933 288.43C326.318 288.43 326.68 288.492 327.019 288.617C327.363 288.737 327.667 288.906 327.933 289.125C328.199 289.344 328.407 289.604 328.558 289.906H328.683V285.234H330.042V297H328.683V295.656H328.558C328.386 295.969 328.17 296.237 327.91 296.461C327.649 296.68 327.352 296.849 327.019 296.969C326.686 297.089 326.324 297.148 325.933 297.148ZM326.246 295.945C326.756 295.945 327.196 295.818 327.566 295.562C327.936 295.307 328.22 294.945 328.417 294.477C328.615 294.003 328.714 293.443 328.714 292.797V292.781C328.714 292.13 328.615 291.57 328.417 291.102C328.22 290.633 327.936 290.271 327.566 290.016C327.196 289.76 326.756 289.633 326.246 289.633C325.735 289.633 325.295 289.76 324.925 290.016C324.561 290.266 324.279 290.625 324.081 291.094C323.889 291.562 323.792 292.125 323.792 292.781V292.797C323.792 293.448 323.889 294.01 324.081 294.484C324.279 294.953 324.561 295.315 324.925 295.57C325.295 295.82 325.735 295.945 326.246 295.945Z" fill="#F5F5F5"/>
<path d="M300.726 320V312.717H300.632L298.482 314.275V313.162L300.732 311.545H301.781V320H300.726ZM307.054 320.199C306.429 320.199 305.894 320.02 305.449 319.66C305.007 319.301 304.667 318.791 304.429 318.131C304.191 317.467 304.072 316.682 304.072 315.775V315.764C304.072 314.857 304.191 314.074 304.429 313.414C304.667 312.754 305.007 312.244 305.449 311.885C305.894 311.525 306.429 311.346 307.054 311.346C307.679 311.346 308.214 311.525 308.66 311.885C309.105 312.244 309.447 312.754 309.685 313.414C309.927 314.074 310.048 314.857 310.048 315.764V315.775C310.048 316.682 309.927 317.467 309.685 318.131C309.447 318.791 309.105 319.301 308.66 319.66C308.214 320.02 307.679 320.199 307.054 320.199ZM307.054 319.279C307.46 319.279 307.806 319.137 308.091 318.852C308.38 318.566 308.601 318.162 308.753 317.639C308.91 317.115 308.988 316.494 308.988 315.775V315.764C308.988 315.045 308.91 314.426 308.753 313.906C308.601 313.383 308.38 312.98 308.091 312.699C307.806 312.414 307.46 312.271 307.054 312.271C306.652 312.271 306.306 312.414 306.017 312.699C305.732 312.98 305.513 313.383 305.361 313.906C305.208 314.426 305.132 315.045 305.132 315.764V315.775C305.132 316.494 305.208 317.115 305.361 317.639C305.513 318.162 305.732 318.566 306.017 318.852C306.306 319.137 306.652 319.279 307.054 319.279ZM314.49 311.176L311.818 322.109H310.839L313.511 311.176H314.49ZM317.507 320V312.717H317.414L315.263 314.275V313.162L317.513 311.545H318.562V320H317.507ZM323.074 320V312.717H322.98L320.83 314.275V313.162L323.08 311.545H324.128V320H323.074Z" fill="#C0C0C0"/>
<path d="M423.939 297V286.992H420.306V285.727H428.978V286.992H425.345V297H423.939ZM431.056 297V285.234H432.415V289.844H432.54C432.754 289.396 433.061 289.049 433.462 288.805C433.863 288.555 434.374 288.43 434.993 288.43C435.624 288.43 436.157 288.552 436.595 288.797C437.032 289.036 437.366 289.388 437.595 289.852C437.824 290.315 437.939 290.88 437.939 291.547V297H436.579V291.875C436.579 291.115 436.418 290.552 436.095 290.188C435.777 289.818 435.282 289.633 434.611 289.633C434.163 289.633 433.775 289.729 433.446 289.922C433.118 290.115 432.863 290.388 432.681 290.742C432.504 291.096 432.415 291.521 432.415 292.016V297H431.056ZM443.22 297.148C442.584 297.148 442.051 297.029 441.618 296.789C441.186 296.544 440.861 296.19 440.642 295.727C440.428 295.258 440.321 294.693 440.321 294.031V288.578H441.681V293.703C441.681 294.458 441.827 295.021 442.118 295.391C442.415 295.76 442.9 295.945 443.571 295.945C443.941 295.945 444.267 295.891 444.548 295.781C444.834 295.672 445.074 295.516 445.267 295.312C445.459 295.104 445.603 294.854 445.696 294.562C445.795 294.266 445.845 293.932 445.845 293.562V288.578H447.204V297H445.845V295.742H445.72C445.584 296.039 445.4 296.294 445.165 296.508C444.931 296.716 444.65 296.875 444.321 296.984C443.999 297.094 443.631 297.148 443.22 297.148Z" fill="#F5F5F5"/>
<path d="M422.583 320V312.717H422.489L420.339 314.275V313.162L422.589 311.545H423.638V320H422.583ZM428.911 320.199C428.286 320.199 427.751 320.02 427.306 319.66C426.864 319.301 426.525 318.791 426.286 318.131C426.048 317.467 425.929 316.682 425.929 315.775V315.764C425.929 314.857 426.048 314.074 426.286 313.414C426.525 312.754 426.864 312.244 427.306 311.885C427.751 311.525 428.286 311.346 428.911 311.346C429.536 311.346 430.071 311.525 430.517 311.885C430.962 312.244 431.304 312.754 431.542 313.414C431.784 314.074 431.905 314.857 431.905 315.764V315.775C431.905 316.682 431.784 317.467 431.542 318.131C431.304 318.791 430.962 319.301 430.517 319.66C430.071 320.02 429.536 320.199 428.911 320.199ZM428.911 319.279C429.318 319.279 429.663 319.137 429.948 318.852C430.237 318.566 430.458 318.162 430.611 317.639C430.767 317.115 430.845 316.494 430.845 315.775V315.764C430.845 315.045 430.767 314.426 430.611 313.906C430.458 313.383 430.237 312.98 429.948 312.699C429.663 312.414 429.318 312.271 428.911 312.271C428.509 312.271 428.163 312.414 427.874 312.699C427.589 312.98 427.37 313.383 427.218 313.906C427.066 314.426 426.989 315.045 426.989 315.764V315.775C426.989 316.494 427.066 317.115 427.218 317.639C427.37 318.162 427.589 318.566 427.874 318.852C428.163 319.137 428.509 319.279 428.911 319.279ZM436.347 311.176L433.675 322.109H432.696L435.368 311.176H436.347ZM439.364 320V312.717H439.271L437.12 314.275V313.162L439.37 311.545H440.419V320H439.364ZM442.862 320V319.273L445.722 316.18C446.081 315.789 446.362 315.467 446.566 315.213C446.769 314.955 446.911 314.723 446.993 314.516C447.075 314.309 447.116 314.082 447.116 313.836V313.824C447.116 313.527 447.052 313.262 446.923 313.027C446.794 312.793 446.611 312.607 446.372 312.471C446.134 312.334 445.849 312.266 445.517 312.266C445.181 312.266 444.886 312.336 444.632 312.477C444.378 312.613 444.181 312.807 444.04 313.057C443.9 313.303 443.829 313.592 443.829 313.924L443.823 313.936L442.816 313.93L442.804 313.924C442.808 313.424 442.929 312.98 443.167 312.594C443.405 312.203 443.734 311.898 444.152 311.68C444.569 311.457 445.048 311.346 445.587 311.346C446.079 311.346 446.523 311.449 446.917 311.656C447.312 311.859 447.622 312.139 447.849 312.494C448.079 312.85 448.194 313.256 448.194 313.713V313.725C448.194 314.045 448.138 314.354 448.025 314.65C447.915 314.947 447.72 315.277 447.439 315.641C447.157 316 446.761 316.443 446.249 316.971L444.064 319.227L444.327 318.74V319.227L444.069 319.051H448.335V320H442.862Z" fill="#C0C0C0"/>
<path d="M542.866 297V285.727H549.71V286.992H544.272V290.867H549.265V292.117H544.272V297H542.866ZM551.85 297V288.578H553.21V289.828H553.335C553.496 289.385 553.77 289.042 554.155 288.797C554.541 288.552 555.017 288.43 555.585 288.43C555.715 288.43 555.843 288.438 555.968 288.453C556.098 288.464 556.197 288.474 556.265 288.484V289.805C556.124 289.779 555.986 289.76 555.85 289.75C555.72 289.734 555.58 289.727 555.429 289.727C554.996 289.727 554.613 289.812 554.28 289.984C553.947 290.156 553.684 290.396 553.491 290.703C553.304 291.01 553.21 291.37 553.21 291.781V297H551.85ZM557.975 297V288.578H559.335V297H557.975ZM558.663 286.953C558.408 286.953 558.186 286.862 557.999 286.68C557.817 286.492 557.725 286.271 557.725 286.016C557.725 285.755 557.817 285.534 557.999 285.352C558.186 285.169 558.408 285.078 558.663 285.078C558.923 285.078 559.145 285.169 559.327 285.352C559.509 285.534 559.6 285.755 559.6 286.016C559.6 286.271 559.509 286.492 559.327 286.68C559.145 286.862 558.923 286.953 558.663 286.953Z" fill="#F5F5F5"/>
<path d="M544.44 320V312.717H544.347L542.196 314.275V313.162L544.446 311.545H545.495V320H544.44ZM550.768 320.199C550.143 320.199 549.608 320.02 549.163 319.66C548.722 319.301 548.382 318.791 548.143 318.131C547.905 317.467 547.786 316.682 547.786 315.775V315.764C547.786 314.857 547.905 314.074 548.143 313.414C548.382 312.754 548.722 312.244 549.163 311.885C549.608 311.525 550.143 311.346 550.768 311.346C551.393 311.346 551.929 311.525 552.374 311.885C552.819 312.244 553.161 312.754 553.399 313.414C553.641 314.074 553.763 314.857 553.763 315.764V315.775C553.763 316.682 553.641 317.467 553.399 318.131C553.161 318.791 552.819 319.301 552.374 319.66C551.929 320.02 551.393 320.199 550.768 320.199ZM550.768 319.279C551.175 319.279 551.52 319.137 551.806 318.852C552.095 318.566 552.315 318.162 552.468 317.639C552.624 317.115 552.702 316.494 552.702 315.775V315.764C552.702 315.045 552.624 314.426 552.468 313.906C552.315 313.383 552.095 312.98 551.806 312.699C551.52 312.414 551.175 312.271 550.768 312.271C550.366 312.271 550.02 312.414 549.731 312.699C549.446 312.98 549.227 313.383 549.075 313.906C548.923 314.426 548.847 315.045 548.847 315.764V315.775C548.847 316.494 548.923 317.115 549.075 317.639C549.227 318.162 549.446 318.566 549.731 318.852C550.02 319.137 550.366 319.279 550.768 319.279ZM558.204 311.176L555.532 322.109H554.554L557.225 311.176H558.204ZM561.222 320V312.717H561.128L558.977 314.275V313.162L561.227 311.545H562.276V320H561.222ZM567.597 320.141C567.015 320.141 566.507 320.041 566.073 319.842C565.64 319.643 565.296 319.369 565.042 319.021C564.792 318.674 564.647 318.277 564.608 317.832L564.602 317.762H565.616L565.622 317.82C565.649 318.098 565.747 318.342 565.915 318.553C566.087 318.764 566.315 318.93 566.6 319.051C566.89 319.168 567.222 319.227 567.597 319.227C567.968 319.227 568.292 319.162 568.569 319.033C568.85 318.904 569.069 318.727 569.225 318.5C569.382 318.27 569.46 318.006 569.46 317.709V317.697C569.46 317.178 569.286 316.779 568.938 316.502C568.595 316.221 568.126 316.08 567.532 316.08H566.472V315.189H567.485C567.821 315.189 568.118 315.127 568.376 315.002C568.634 314.873 568.835 314.699 568.979 314.48C569.124 314.258 569.196 314.006 569.196 313.725V313.713C569.196 313.416 569.134 313.164 569.009 312.957C568.884 312.75 568.7 312.592 568.458 312.482C568.22 312.373 567.929 312.318 567.585 312.318C567.253 312.318 566.956 312.375 566.694 312.488C566.436 312.598 566.229 312.756 566.073 312.963C565.917 313.17 565.823 313.416 565.792 313.701L565.786 313.76H564.772L564.778 313.701C564.825 313.24 564.97 312.838 565.212 312.494C565.458 312.15 565.782 311.883 566.184 311.691C566.591 311.5 567.057 311.404 567.585 311.404C568.124 311.404 568.593 311.498 568.991 311.686C569.393 311.869 569.704 312.125 569.923 312.453C570.145 312.777 570.257 313.154 570.257 313.584V313.596C570.257 313.943 570.181 314.252 570.028 314.521C569.876 314.791 569.665 315.016 569.395 315.195C569.126 315.375 568.815 315.502 568.464 315.576V315.6C569.081 315.65 569.579 315.859 569.958 316.227C570.341 316.59 570.532 317.072 570.532 317.674V317.686C570.532 318.154 570.405 318.574 570.151 318.945C569.897 319.316 569.55 319.609 569.108 319.824C568.667 320.035 568.163 320.141 567.597 320.141Z" fill="#C0C0C0"/>
<path d="M668.419 297.266C667.596 297.266 666.877 297.133 666.262 296.867C665.653 296.596 665.169 296.227 664.809 295.758C664.455 295.284 664.249 294.742 664.192 294.133L664.184 294.047H665.59L665.598 294.133C665.635 294.508 665.778 294.833 666.028 295.109C666.283 295.38 666.622 295.591 667.044 295.742C667.471 295.893 667.955 295.969 668.497 295.969C669.007 295.969 669.46 295.888 669.856 295.727C670.257 295.56 670.572 295.331 670.801 295.039C671.03 294.747 671.145 294.411 671.145 294.031V294.023C671.145 293.555 670.973 293.161 670.629 292.844C670.286 292.521 669.726 292.273 668.95 292.102L667.7 291.828C666.57 291.578 665.747 291.193 665.231 290.672C664.721 290.146 664.465 289.474 664.465 288.656V288.648C664.471 288.023 664.64 287.471 664.973 286.992C665.312 286.513 665.778 286.138 666.372 285.867C666.971 285.596 667.658 285.461 668.434 285.461C669.184 285.461 669.848 285.596 670.426 285.867C671.004 286.133 671.463 286.492 671.801 286.945C672.145 287.398 672.335 287.906 672.372 288.469L672.379 288.578H670.973L670.958 288.477C670.905 288.143 670.77 287.849 670.551 287.594C670.333 287.333 670.041 287.128 669.676 286.977C669.312 286.826 668.885 286.753 668.395 286.758C667.926 286.758 667.504 286.831 667.129 286.977C666.754 287.122 666.455 287.333 666.231 287.609C666.012 287.88 665.903 288.214 665.903 288.609V288.617C665.903 289.065 666.07 289.443 666.403 289.75C666.736 290.057 667.286 290.294 668.051 290.461L669.301 290.742C670.088 290.914 670.721 291.138 671.2 291.414C671.679 291.69 672.028 292.029 672.247 292.43C672.471 292.826 672.583 293.294 672.583 293.836V293.844C672.583 294.547 672.411 295.154 672.067 295.664C671.723 296.174 671.239 296.57 670.614 296.852C669.989 297.128 669.257 297.266 668.419 297.266ZM677.067 297.148C676.536 297.148 676.057 297.047 675.629 296.844C675.208 296.641 674.872 296.352 674.622 295.977C674.377 295.602 674.254 295.159 674.254 294.648V294.633C674.254 294.133 674.374 293.706 674.614 293.352C674.853 292.992 675.202 292.711 675.661 292.508C676.119 292.305 676.674 292.185 677.325 292.148L680.419 291.961V293.047L677.489 293.234C676.848 293.271 676.379 293.404 676.083 293.633C675.791 293.862 675.645 294.185 675.645 294.602V294.617C675.645 295.044 675.807 295.378 676.129 295.617C676.452 295.852 676.859 295.969 677.348 295.969C677.812 295.969 678.223 295.878 678.583 295.695C678.942 295.508 679.223 295.255 679.426 294.938C679.635 294.62 679.739 294.26 679.739 293.859V291.234C679.739 290.714 679.58 290.318 679.262 290.047C678.95 289.771 678.478 289.633 677.848 289.633C677.343 289.633 676.929 289.724 676.606 289.906C676.283 290.083 676.067 290.336 675.958 290.664L675.95 290.688H674.59L674.598 290.641C674.671 290.198 674.853 289.812 675.145 289.484C675.442 289.151 675.825 288.893 676.294 288.711C676.762 288.523 677.296 288.43 677.895 288.43C678.583 288.43 679.163 288.542 679.637 288.766C680.116 288.99 680.478 289.312 680.723 289.734C680.973 290.151 681.098 290.651 681.098 291.234V297H679.739V295.758H679.614C679.437 296.055 679.221 296.307 678.965 296.516C678.715 296.724 678.432 296.883 678.114 296.992C677.796 297.096 677.447 297.148 677.067 297.148ZM686.575 297.062C685.71 297.062 685.083 296.888 684.692 296.539C684.307 296.19 684.114 295.615 684.114 294.812V289.703H682.786V288.578H684.114V286.398H685.52V288.578H687.364V289.703H685.52V294.469C685.52 294.964 685.614 295.32 685.801 295.539C685.989 295.753 686.301 295.859 686.739 295.859C686.859 295.859 686.96 295.857 687.044 295.852C687.132 295.846 687.239 295.839 687.364 295.828V296.984C687.234 297.005 687.103 297.023 686.973 297.039C686.843 297.055 686.71 297.062 686.575 297.062Z" fill="#F5F5F5"/>
<path d="M666.297 320V312.717H666.204L664.053 314.275V313.162L666.303 311.545H667.352V320H666.297ZM672.626 320.199C672.001 320.199 671.465 320.02 671.02 319.66C670.579 319.301 670.239 318.791 670.001 318.131C669.762 317.467 669.643 316.682 669.643 315.775V315.764C669.643 314.857 669.762 314.074 670.001 313.414C670.239 312.754 670.579 312.244 671.02 311.885C671.465 311.525 672.001 311.346 672.626 311.346C673.251 311.346 673.786 311.525 674.231 311.885C674.676 312.244 675.018 312.754 675.256 313.414C675.499 314.074 675.62 314.857 675.62 315.764V315.775C675.62 316.682 675.499 317.467 675.256 318.131C675.018 318.791 674.676 319.301 674.231 319.66C673.786 320.02 673.251 320.199 672.626 320.199ZM672.626 319.279C673.032 319.279 673.378 319.137 673.663 318.852C673.952 318.566 674.172 318.162 674.325 317.639C674.481 317.115 674.559 316.494 674.559 315.775V315.764C674.559 315.045 674.481 314.426 674.325 313.906C674.172 313.383 673.952 312.98 673.663 312.699C673.378 312.414 673.032 312.271 672.626 312.271C672.223 312.271 671.878 312.414 671.588 312.699C671.303 312.98 671.085 313.383 670.932 313.906C670.78 314.426 670.704 315.045 670.704 315.764V315.775C670.704 316.494 670.78 317.115 670.932 317.639C671.085 318.162 671.303 318.566 671.588 318.852C671.878 319.137 672.223 319.279 672.626 319.279ZM680.061 311.176L677.389 322.109H676.411L679.083 311.176H680.061ZM683.079 320V312.717H682.985L680.835 314.275V313.162L683.085 311.545H684.133V320H683.079ZM690.438 320V318.248H686.319V317.287C686.549 316.904 686.784 316.518 687.022 316.127C687.26 315.732 687.501 315.34 687.743 314.949C687.989 314.555 688.235 314.164 688.481 313.777C688.727 313.391 688.971 313.01 689.213 312.635C689.46 312.26 689.702 311.896 689.94 311.545H691.469V317.305H692.67V318.248H691.469V320H690.438ZM687.397 317.311H690.444V312.523H690.374C690.182 312.809 689.987 313.105 689.788 313.414C689.588 313.719 689.385 314.031 689.178 314.352C688.975 314.672 688.772 314.994 688.569 315.318C688.366 315.643 688.165 315.967 687.965 316.291C687.77 316.611 687.581 316.928 687.397 317.24V317.311Z" fill="#C0C0C0"/>
<path d="M790.276 297.266C789.453 297.266 788.734 297.133 788.119 296.867C787.51 296.596 787.026 296.227 786.666 295.758C786.312 295.284 786.106 294.742 786.049 294.133L786.041 294.047H787.448L787.455 294.133C787.492 294.508 787.635 294.833 787.885 295.109C788.14 295.38 788.479 295.591 788.901 295.742C789.328 295.893 789.812 295.969 790.354 295.969C790.864 295.969 791.317 295.888 791.713 295.727C792.114 295.56 792.429 295.331 792.658 295.039C792.888 294.747 793.002 294.411 793.002 294.031V294.023C793.002 293.555 792.83 293.161 792.487 292.844C792.143 292.521 791.583 292.273 790.807 292.102L789.557 291.828C788.427 291.578 787.604 291.193 787.088 290.672C786.578 290.146 786.323 289.474 786.323 288.656V288.648C786.328 288.023 786.497 287.471 786.83 286.992C787.169 286.513 787.635 286.138 788.229 285.867C788.828 285.596 789.515 285.461 790.291 285.461C791.041 285.461 791.705 285.596 792.283 285.867C792.862 286.133 793.32 286.492 793.658 286.945C794.002 287.398 794.192 287.906 794.229 288.469L794.237 288.578H792.83L792.815 288.477C792.763 288.143 792.627 287.849 792.408 287.594C792.19 287.333 791.898 287.128 791.533 286.977C791.169 286.826 790.742 286.753 790.252 286.758C789.783 286.758 789.362 286.831 788.987 286.977C788.612 287.122 788.312 287.333 788.088 287.609C787.869 287.88 787.76 288.214 787.76 288.609V288.617C787.76 289.065 787.927 289.443 788.26 289.75C788.593 290.057 789.143 290.294 789.908 290.461L791.158 290.742C791.945 290.914 792.578 291.138 793.057 291.414C793.536 291.69 793.885 292.029 794.104 292.43C794.328 292.826 794.44 293.294 794.44 293.836V293.844C794.44 294.547 794.268 295.154 793.924 295.664C793.58 296.174 793.096 296.57 792.471 296.852C791.846 297.128 791.114 297.266 790.276 297.266ZM799.432 297.148C798.796 297.148 798.263 297.029 797.83 296.789C797.398 296.544 797.073 296.19 796.854 295.727C796.64 295.258 796.533 294.693 796.533 294.031V288.578H797.893V293.703C797.893 294.458 798.039 295.021 798.33 295.391C798.627 295.76 799.112 295.945 799.783 295.945C800.153 295.945 800.479 295.891 800.76 295.781C801.046 295.672 801.286 295.516 801.479 295.312C801.671 295.104 801.815 294.854 801.908 294.562C802.007 294.266 802.057 293.932 802.057 293.562V288.578H803.416V297H802.057V295.742H801.932C801.796 296.039 801.612 296.294 801.377 296.508C801.143 296.716 800.862 296.875 800.533 296.984C800.211 297.094 799.843 297.148 799.432 297.148ZM805.955 297V288.578H807.315V289.844H807.44C807.653 289.396 807.961 289.049 808.362 288.805C808.763 288.555 809.273 288.43 809.893 288.43C810.841 288.43 811.567 288.701 812.073 289.242C812.583 289.779 812.838 290.547 812.838 291.547V297H811.479V291.875C811.479 291.115 811.317 290.552 810.994 290.188C810.677 289.818 810.182 289.633 809.51 289.633C809.062 289.633 808.674 289.729 808.346 289.922C808.018 290.115 807.763 290.388 807.58 290.742C807.403 291.096 807.315 291.521 807.315 292.016V297H805.955Z" fill="#F5F5F5"/>
<path d="M788.155 320V312.717H788.061L785.91 314.275V313.162L788.16 311.545H789.209V320H788.155ZM794.483 320.199C793.858 320.199 793.323 320.02 792.877 319.66C792.436 319.301 792.096 318.791 791.858 318.131C791.619 317.467 791.5 316.682 791.5 315.775V315.764C791.5 314.857 791.619 314.074 791.858 313.414C792.096 312.754 792.436 312.244 792.877 311.885C793.323 311.525 793.858 311.346 794.483 311.346C795.108 311.346 795.643 311.525 796.088 311.885C796.533 312.244 796.875 312.754 797.114 313.414C797.356 314.074 797.477 314.857 797.477 315.764V315.775C797.477 316.682 797.356 317.467 797.114 318.131C796.875 318.791 796.533 319.301 796.088 319.66C795.643 320.02 795.108 320.199 794.483 320.199ZM794.483 319.279C794.889 319.279 795.235 319.137 795.52 318.852C795.809 318.566 796.03 318.162 796.182 317.639C796.338 317.115 796.416 316.494 796.416 315.775V315.764C796.416 315.045 796.338 314.426 796.182 313.906C796.03 313.383 795.809 312.98 795.52 312.699C795.235 312.414 794.889 312.271 794.483 312.271C794.08 312.271 793.735 312.414 793.446 312.699C793.16 312.98 792.942 313.383 792.789 313.906C792.637 314.426 792.561 315.045 792.561 315.764V315.775C792.561 316.494 792.637 317.115 792.789 317.639C792.942 318.162 793.16 318.566 793.446 318.852C793.735 319.137 794.08 319.279 794.483 319.279ZM801.918 311.176L799.246 322.109H798.268L800.94 311.176H801.918ZM804.936 320V312.717H804.842L802.692 314.275V313.162L804.942 311.545H805.99V320H804.936ZM811.211 320.199C810.688 320.199 810.221 320.096 809.811 319.889C809.401 319.682 809.071 319.4 808.821 319.045C808.574 318.686 808.43 318.281 808.387 317.832L808.381 317.768H809.395L809.401 317.814C809.436 318.084 809.533 318.33 809.694 318.553C809.858 318.771 810.071 318.945 810.332 319.074C810.598 319.203 810.895 319.268 811.223 319.268C811.598 319.268 811.928 319.186 812.213 319.021C812.498 318.854 812.721 318.623 812.881 318.33C813.041 318.037 813.121 317.701 813.121 317.322V317.311C813.121 316.936 813.039 316.604 812.875 316.314C812.715 316.021 812.494 315.793 812.213 315.629C811.932 315.465 811.608 315.383 811.24 315.383C810.959 315.383 810.699 315.426 810.461 315.512C810.227 315.598 810.018 315.727 809.834 315.898C809.76 315.969 809.69 316.045 809.623 316.127C809.561 316.209 809.502 316.301 809.448 316.402H808.533L808.979 311.545H813.684V312.488H809.811L809.524 315.348H809.617C809.742 315.156 809.897 314.996 810.08 314.867C810.264 314.738 810.469 314.641 810.696 314.574C810.926 314.504 811.168 314.469 811.422 314.469C811.953 314.469 812.424 314.592 812.834 314.838C813.244 315.08 813.567 315.414 813.801 315.84C814.035 316.262 814.153 316.746 814.153 317.293V317.305C814.153 317.871 814.026 318.373 813.772 318.811C813.522 319.244 813.176 319.584 812.735 319.83C812.293 320.076 811.785 320.199 811.211 320.199Z" fill="#C0C0C0"/>
<path d="M8.50977 264V257.931H8.43164L6.63965 259.229V258.302L8.51465 256.954H9.38867V264H8.50977ZM13.7393 264.166C13.3031 264.166 12.9141 264.08 12.5723 263.907C12.2305 263.735 11.9554 263.5 11.7471 263.204C11.542 262.905 11.4215 262.568 11.3857 262.193L11.3809 262.14H12.2256L12.2305 262.179C12.2598 262.403 12.3411 262.608 12.4746 262.794C12.6113 262.976 12.7887 263.121 13.0068 263.229C13.2282 263.336 13.4756 263.39 13.749 263.39C14.0615 263.39 14.3366 263.321 14.5742 263.185C14.8118 263.045 14.9974 262.853 15.1309 262.608C15.2643 262.364 15.3311 262.084 15.3311 261.769V261.759C15.3311 261.446 15.2627 261.17 15.126 260.929C14.9925 260.685 14.8086 260.494 14.5742 260.357C14.3398 260.221 14.0697 260.152 13.7637 260.152C13.5293 260.152 13.3128 260.188 13.1143 260.26C12.9189 260.331 12.7448 260.439 12.5918 260.582C12.5299 260.641 12.4714 260.704 12.416 260.772C12.3639 260.841 12.3151 260.917 12.2695 261.002H11.5078L11.8789 256.954H15.7998V257.74H12.5723L12.333 260.123H12.4111C12.5153 259.964 12.6439 259.83 12.7969 259.723C12.9499 259.615 13.1208 259.534 13.3096 259.479C13.5016 259.42 13.7035 259.391 13.915 259.391C14.3577 259.391 14.75 259.493 15.0918 259.698C15.4336 259.9 15.7021 260.178 15.8975 260.533C16.0928 260.885 16.1904 261.288 16.1904 261.744V261.754C16.1904 262.226 16.0846 262.644 15.873 263.009C15.6647 263.37 15.3766 263.653 15.0088 263.858C14.641 264.063 14.2178 264.166 13.7393 264.166ZM19.1787 260.387C18.863 260.387 18.5814 260.313 18.334 260.167C18.0898 260.021 17.8978 259.825 17.7578 259.581C17.6178 259.334 17.5479 259.06 17.5479 258.761V258.751C17.5479 258.451 17.6178 258.18 17.7578 257.936C17.8978 257.688 18.0898 257.491 18.334 257.345C18.5814 257.198 18.863 257.125 19.1787 257.125C19.4945 257.125 19.7744 257.198 20.0186 257.345C20.266 257.491 20.4596 257.688 20.5996 257.936C20.7396 258.18 20.8096 258.451 20.8096 258.751V258.761C20.8096 259.06 20.738 259.334 20.5947 259.581C20.4548 259.825 20.2627 260.021 20.0186 260.167C19.7744 260.313 19.4945 260.387 19.1787 260.387ZM19.1787 259.703C19.361 259.703 19.5189 259.661 19.6523 259.576C19.7858 259.488 19.89 259.374 19.9648 259.234C20.0397 259.091 20.0771 258.933 20.0771 258.761V258.751C20.0771 258.575 20.0397 258.417 19.9648 258.277C19.89 258.134 19.7842 258.02 19.6475 257.936C19.514 257.851 19.3577 257.809 19.1787 257.809C18.9964 257.809 18.8369 257.851 18.7002 257.936C18.5667 258.02 18.4626 258.134 18.3877 258.277C18.3161 258.417 18.2803 258.575 18.2803 258.751V258.761C18.2803 258.933 18.3161 259.091 18.3877 259.234C18.4626 259.374 18.5667 259.488 18.7002 259.576C18.8369 259.661 18.9964 259.703 19.1787 259.703ZM22.4355 264V256.954H26.7129V257.745H23.3145V260.167H26.4346V260.948H23.3145V264H22.4355Z" fill="#C0C0C0"/>
<path d="M8.18359 220.117C7.69857 220.117 7.27539 220.034 6.91406 219.868C6.55273 219.702 6.26628 219.474 6.05469 219.185C5.84635 218.895 5.72591 218.564 5.69336 218.193L5.68848 218.135H6.5332L6.53809 218.184C6.56087 218.415 6.64225 218.618 6.78223 218.794C6.92546 218.97 7.11589 219.108 7.35352 219.209C7.5944 219.307 7.87109 219.355 8.18359 219.355C8.49284 219.355 8.76302 219.302 8.99414 219.194C9.22852 219.087 9.41081 218.939 9.54102 218.75C9.67122 218.558 9.73633 218.338 9.73633 218.091V218.081C9.73633 217.648 9.59147 217.316 9.30176 217.085C9.0153 216.851 8.62467 216.733 8.12988 216.733H7.24609V215.991H8.09082C8.37077 215.991 8.61816 215.939 8.83301 215.835C9.04785 215.728 9.21549 215.583 9.33594 215.4C9.45638 215.215 9.5166 215.005 9.5166 214.771V214.761C9.5166 214.513 9.46452 214.303 9.36035 214.131C9.25618 213.958 9.10319 213.826 8.90137 213.735C8.7028 213.644 8.46029 213.599 8.17383 213.599C7.89714 213.599 7.64974 213.646 7.43164 213.74C7.2168 213.831 7.04427 213.963 6.91406 214.136C6.78385 214.308 6.70573 214.513 6.67969 214.751L6.6748 214.8H5.83008L5.83496 214.751C5.87402 214.367 5.99447 214.032 6.19629 213.745C6.40137 213.459 6.67155 213.236 7.00684 213.076C7.34538 212.917 7.73438 212.837 8.17383 212.837C8.62305 212.837 9.01367 212.915 9.3457 213.071C9.68099 213.224 9.93978 213.438 10.1221 213.711C10.3076 213.981 10.4004 214.295 10.4004 214.653V214.663C10.4004 214.953 10.3369 215.21 10.21 215.435C10.083 215.659 9.90723 215.846 9.68262 215.996C9.45801 216.146 9.19922 216.252 8.90625 216.313V216.333C9.42057 216.375 9.83561 216.549 10.1514 216.855C10.4704 217.158 10.6299 217.56 10.6299 218.062V218.071C10.6299 218.462 10.5241 218.812 10.3125 219.121C10.1009 219.43 9.8112 219.674 9.44336 219.854C9.07552 220.029 8.6556 220.117 8.18359 220.117ZM14.4141 220.166C13.8932 220.166 13.4473 220.016 13.0762 219.717C12.7083 219.417 12.4251 218.993 12.2266 218.442C12.028 217.889 11.9287 217.235 11.9287 216.479V216.47C11.9287 215.715 12.028 215.062 12.2266 214.512C12.4251 213.962 12.7083 213.537 13.0762 213.237C13.4473 212.938 13.8932 212.788 14.4141 212.788C14.9349 212.788 15.3809 212.938 15.752 213.237C16.123 213.537 16.4079 213.962 16.6064 214.512C16.8083 215.062 16.9092 215.715 16.9092 216.47V216.479C16.9092 217.235 16.8083 217.889 16.6064 218.442C16.4079 218.993 16.123 219.417 15.752 219.717C15.3809 220.016 14.9349 220.166 14.4141 220.166ZM14.4141 219.399C14.7526 219.399 15.0407 219.281 15.2783 219.043C15.5192 218.805 15.7031 218.468 15.8301 218.032C15.9603 217.596 16.0254 217.078 16.0254 216.479V216.47C16.0254 215.871 15.9603 215.355 15.8301 214.922C15.7031 214.486 15.5192 214.15 15.2783 213.916C15.0407 213.678 14.7526 213.56 14.4141 213.56C14.0788 213.56 13.7907 213.678 13.5498 213.916C13.3122 214.15 13.1299 214.486 13.0029 214.922C12.876 215.355 12.8125 215.871 12.8125 216.47V216.479C12.8125 217.078 12.876 217.596 13.0029 218.032C13.1299 218.468 13.3122 218.805 13.5498 219.043C13.7907 219.281 14.0788 219.399 14.4141 219.399ZM19.8291 216.387C19.5133 216.387 19.2318 216.313 18.9844 216.167C18.7402 216.021 18.5482 215.825 18.4082 215.581C18.2682 215.334 18.1982 215.06 18.1982 214.761V214.751C18.1982 214.451 18.2682 214.18 18.4082 213.936C18.5482 213.688 18.7402 213.491 18.9844 213.345C19.2318 213.198 19.5133 213.125 19.8291 213.125C20.1449 213.125 20.4248 213.198 20.6689 213.345C20.9163 213.491 21.11 213.688 21.25 213.936C21.39 214.18 21.46 214.451 21.46 214.751V214.761C21.46 215.06 21.3883 215.334 21.2451 215.581C21.1051 215.825 20.9131 216.021 20.6689 216.167C20.4248 216.313 20.1449 216.387 19.8291 216.387ZM19.8291 215.703C20.0114 215.703 20.1693 215.661 20.3027 215.576C20.4362 215.488 20.5404 215.374 20.6152 215.234C20.6901 215.091 20.7275 214.933 20.7275 214.761V214.751C20.7275 214.575 20.6901 214.417 20.6152 214.277C20.5404 214.134 20.4346 214.02 20.2979 213.936C20.1644 213.851 20.0081 213.809 19.8291 213.809C19.6468 213.809 19.4873 213.851 19.3506 213.936C19.2171 214.02 19.113 214.134 19.0381 214.277C18.9665 214.417 18.9307 214.575 18.9307 214.751V214.761C18.9307 214.933 18.9665 215.091 19.0381 215.234C19.113 215.374 19.2171 215.488 19.3506 215.576C19.4873 215.661 19.6468 215.703 19.8291 215.703ZM23.0859 220V212.954H27.3633V213.745H23.9648V216.167H27.085V216.948H23.9648V220H23.0859Z" fill="#C0C0C0"/>
<path d="M8.00391 178V176.54H4.57129V175.739C4.76335 175.42 4.95866 175.098 5.15723 174.772C5.35579 174.444 5.55599 174.117 5.75781 173.791C5.96289 173.462 6.16797 173.137 6.37305 172.814C6.57812 172.492 6.78158 172.175 6.9834 171.862C7.18848 171.55 7.3903 171.247 7.58887 170.954H8.86328V175.754H9.86426V176.54H8.86328V178H8.00391ZM5.46973 175.759H8.00879V171.77H7.9502C7.79069 172.007 7.62793 172.255 7.46191 172.512C7.2959 172.766 7.12663 173.026 6.9541 173.293C6.78483 173.56 6.61556 173.828 6.44629 174.099C6.27702 174.369 6.10938 174.639 5.94336 174.909C5.7806 175.176 5.62272 175.44 5.46973 175.7V175.759ZM13.5361 178.166C13.0999 178.166 12.7109 178.08 12.3691 177.907C12.0273 177.735 11.7523 177.5 11.5439 177.204C11.3389 176.905 11.2184 176.568 11.1826 176.193L11.1777 176.14H12.0225L12.0273 176.179C12.0566 176.403 12.138 176.608 12.2715 176.794C12.4082 176.976 12.5856 177.121 12.8037 177.229C13.0251 177.336 13.2725 177.39 13.5459 177.39C13.8584 177.39 14.1335 177.321 14.3711 177.185C14.6087 177.045 14.7943 176.853 14.9277 176.608C15.0612 176.364 15.1279 176.084 15.1279 175.769V175.759C15.1279 175.446 15.0596 175.17 14.9229 174.929C14.7894 174.685 14.6055 174.494 14.3711 174.357C14.1367 174.221 13.8665 174.152 13.5605 174.152C13.3262 174.152 13.1097 174.188 12.9111 174.26C12.7158 174.331 12.5417 174.439 12.3887 174.582C12.3268 174.641 12.2682 174.704 12.2129 174.772C12.1608 174.841 12.112 174.917 12.0664 175.002H11.3047L11.6758 170.954H15.5967V171.74H12.3691L12.1299 174.123H12.208C12.3122 173.964 12.4408 173.83 12.5938 173.723C12.7467 173.615 12.9176 173.534 13.1064 173.479C13.2985 173.42 13.5003 173.391 13.7119 173.391C14.1546 173.391 14.5469 173.493 14.8887 173.698C15.2305 173.9 15.499 174.178 15.6943 174.533C15.8896 174.885 15.9873 175.288 15.9873 175.744V175.754C15.9873 176.226 15.8815 176.644 15.6699 177.009C15.4616 177.37 15.1735 177.653 14.8057 177.858C14.4378 178.063 14.0146 178.166 13.5361 178.166ZM18.9756 174.387C18.6598 174.387 18.3783 174.313 18.1309 174.167C17.8867 174.021 17.6947 173.825 17.5547 173.581C17.4147 173.334 17.3447 173.06 17.3447 172.761V172.751C17.3447 172.451 17.4147 172.18 17.5547 171.936C17.6947 171.688 17.8867 171.491 18.1309 171.345C18.3783 171.198 18.6598 171.125 18.9756 171.125C19.2913 171.125 19.5713 171.198 19.8154 171.345C20.0628 171.491 20.2565 171.688 20.3965 171.936C20.5365 172.18 20.6064 172.451 20.6064 172.751V172.761C20.6064 173.06 20.5348 173.334 20.3916 173.581C20.2516 173.825 20.0596 174.021 19.8154 174.167C19.5713 174.313 19.2913 174.387 18.9756 174.387ZM18.9756 173.703C19.1579 173.703 19.3158 173.661 19.4492 173.576C19.5827 173.488 19.6868 173.374 19.7617 173.234C19.8366 173.091 19.874 172.933 19.874 172.761V172.751C19.874 172.575 19.8366 172.417 19.7617 172.277C19.6868 172.134 19.5811 172.02 19.4443 171.936C19.3109 171.851 19.1546 171.809 18.9756 171.809C18.7933 171.809 18.6338 171.851 18.4971 171.936C18.3636 172.02 18.2594 172.134 18.1846 172.277C18.113 172.417 18.0771 172.575 18.0771 172.751V172.761C18.0771 172.933 18.113 173.091 18.1846 173.234C18.2594 173.374 18.3636 173.488 18.4971 173.576C18.6338 173.661 18.7933 173.703 18.9756 173.703ZM22.2324 178V170.954H26.5098V171.745H23.1113V174.167H26.2314V174.948H23.1113V178H22.2324Z" fill="#C0C0C0"/>
<path d="M7.27637 138.166C6.9541 138.166 6.63509 138.104 6.31934 137.98C6.00684 137.857 5.72201 137.657 5.46484 137.38C5.21094 137.103 5.00749 136.739 4.85449 136.286C4.7015 135.83 4.625 135.271 4.625 134.606V134.597C4.625 133.796 4.73242 133.112 4.94727 132.546C5.16211 131.976 5.47135 131.542 5.875 131.242C6.27865 130.939 6.7653 130.788 7.33496 130.788C7.72884 130.788 8.08366 130.861 8.39941 131.008C8.71842 131.151 8.98372 131.353 9.19531 131.613C9.41016 131.87 9.55664 132.173 9.63477 132.521L9.64941 132.585H8.76562L8.74609 132.531C8.67448 132.333 8.57194 132.163 8.43848 132.023C8.30827 131.88 8.14876 131.77 7.95996 131.691C7.77441 131.613 7.56283 131.574 7.3252 131.574C6.89876 131.574 6.55208 131.7 6.28516 131.95C6.01823 132.198 5.81966 132.528 5.68945 132.941C5.5625 133.352 5.48926 133.802 5.46973 134.294C5.46647 134.336 5.46484 134.38 5.46484 134.426C5.46484 134.468 5.46484 134.512 5.46484 134.558L5.6748 135.729C5.6748 136.039 5.74479 136.319 5.88477 136.569C6.02799 136.82 6.22005 137.02 6.46094 137.17C6.70182 137.316 6.97038 137.39 7.2666 137.39C7.56283 137.39 7.83138 137.318 8.07227 137.175C8.31315 137.028 8.50358 136.831 8.64355 136.584C8.78678 136.337 8.8584 136.062 8.8584 135.759V135.749C8.8584 135.437 8.79004 135.16 8.65332 134.919C8.51986 134.675 8.33431 134.484 8.09668 134.348C7.85905 134.208 7.58724 134.138 7.28125 134.138C6.97852 134.138 6.70508 134.206 6.46094 134.343C6.22005 134.479 6.02799 134.668 5.88477 134.909C5.74479 135.147 5.6748 135.419 5.6748 135.725V135.729H5.38672V134.46H5.55762C5.64551 134.268 5.77572 134.089 5.94824 133.923C6.12077 133.757 6.33236 133.623 6.58301 133.522C6.83366 133.422 7.11686 133.371 7.43262 133.371C7.87533 133.371 8.27083 133.474 8.61914 133.679C8.96745 133.884 9.24089 134.164 9.43945 134.519C9.64128 134.873 9.74219 135.277 9.74219 135.729V135.739C9.74219 136.208 9.63477 136.625 9.41992 136.989C9.20833 137.354 8.91699 137.642 8.5459 137.854C8.1748 138.062 7.75163 138.166 7.27637 138.166ZM13.5117 138.166C12.9909 138.166 12.5449 138.016 12.1738 137.717C11.806 137.417 11.5228 136.993 11.3242 136.442C11.1257 135.889 11.0264 135.235 11.0264 134.479V134.47C11.0264 133.715 11.1257 133.062 11.3242 132.512C11.5228 131.962 11.806 131.537 12.1738 131.237C12.5449 130.938 12.9909 130.788 13.5117 130.788C14.0326 130.788 14.4785 130.938 14.8496 131.237C15.2207 131.537 15.5055 131.962 15.7041 132.512C15.9059 133.062 16.0068 133.715 16.0068 134.47V134.479C16.0068 135.235 15.9059 135.889 15.7041 136.442C15.5055 136.993 15.2207 137.417 14.8496 137.717C14.4785 138.016 14.0326 138.166 13.5117 138.166ZM13.5117 137.399C13.8503 137.399 14.1383 137.281 14.376 137.043C14.6169 136.805 14.8008 136.468 14.9277 136.032C15.0579 135.596 15.123 135.078 15.123 134.479V134.47C15.123 133.871 15.0579 133.355 14.9277 132.922C14.8008 132.486 14.6169 132.15 14.376 131.916C14.1383 131.678 13.8503 131.56 13.5117 131.56C13.1764 131.56 12.8883 131.678 12.6475 131.916C12.4098 132.15 12.2275 132.486 12.1006 132.922C11.9736 133.355 11.9102 133.871 11.9102 134.47V134.479C11.9102 135.078 11.9736 135.596 12.1006 136.032C12.2275 136.468 12.4098 136.805 12.6475 137.043C12.8883 137.281 13.1764 137.399 13.5117 137.399ZM18.9268 134.387C18.611 134.387 18.3294 134.313 18.082 134.167C17.8379 134.021 17.6458 133.825 17.5059 133.581C17.3659 133.334 17.2959 133.06 17.2959 132.761V132.751C17.2959 132.451 17.3659 132.18 17.5059 131.936C17.6458 131.688 17.8379 131.491 18.082 131.345C18.3294 131.198 18.611 131.125 18.9268 131.125C19.2425 131.125 19.5225 131.198 19.7666 131.345C20.014 131.491 20.2077 131.688 20.3477 131.936C20.4876 132.18 20.5576 132.451 20.5576 132.751V132.761C20.5576 133.06 20.486 133.334 20.3428 133.581C20.2028 133.825 20.0107 134.021 19.7666 134.167C19.5225 134.313 19.2425 134.387 18.9268 134.387ZM18.9268 133.703C19.109 133.703 19.2669 133.661 19.4004 133.576C19.5339 133.488 19.638 133.374 19.7129 133.234C19.7878 133.091 19.8252 132.933 19.8252 132.761V132.751C19.8252 132.575 19.7878 132.417 19.7129 132.277C19.638 132.134 19.5322 132.02 19.3955 131.936C19.262 131.851 19.1058 131.809 18.9268 131.809C18.7445 131.809 18.585 131.851 18.4482 131.936C18.3148 132.02 18.2106 132.134 18.1357 132.277C18.0641 132.417 18.0283 132.575 18.0283 132.751V132.761C18.0283 132.933 18.0641 133.091 18.1357 133.234C18.2106 133.374 18.3148 133.488 18.4482 133.576C18.585 133.661 18.7445 133.703 18.9268 133.703ZM22.1836 138V130.954H26.4609V131.745H23.0625V134.167H26.1826V134.948H23.0625V138H22.1836Z" fill="#C0C0C0"/>
<path d="M6.0791 94L9.24316 87.8086V87.7402H5.47363V86.9541H10.1367V87.7695L7.00195 94H6.0791ZM13.6963 94.166C13.2601 94.166 12.8711 94.0798 12.5293 93.9072C12.1875 93.7347 11.9124 93.5003 11.7041 93.2041C11.499 92.9046 11.3786 92.5677 11.3428 92.1934L11.3379 92.1396H12.1826L12.1875 92.1787C12.2168 92.4033 12.2982 92.6084 12.4316 92.7939C12.5684 92.9762 12.7458 93.1211 12.9639 93.2285C13.1852 93.3359 13.4326 93.3896 13.7061 93.3896C14.0186 93.3896 14.2936 93.3213 14.5312 93.1846C14.7689 93.0446 14.9544 92.8525 15.0879 92.6084C15.2214 92.3643 15.2881 92.0843 15.2881 91.7686V91.7588C15.2881 91.4463 15.2197 91.1696 15.083 90.9287C14.9495 90.6846 14.7656 90.4941 14.5312 90.3574C14.2969 90.2207 14.0267 90.1523 13.7207 90.1523C13.4863 90.1523 13.2699 90.1882 13.0713 90.2598C12.876 90.3314 12.7018 90.4388 12.5488 90.582C12.487 90.6406 12.4284 90.7041 12.373 90.7725C12.321 90.8408 12.2721 90.9173 12.2266 91.002H11.4648L11.8359 86.9541H15.7568V87.7402H12.5293L12.29 90.123H12.3682C12.4723 89.9635 12.6009 89.8301 12.7539 89.7227C12.9069 89.6152 13.0778 89.5339 13.2666 89.4785C13.4587 89.4199 13.6605 89.3906 13.8721 89.3906C14.3148 89.3906 14.707 89.4932 15.0488 89.6982C15.3906 89.9001 15.6592 90.1784 15.8545 90.5332C16.0498 90.8848 16.1475 91.2884 16.1475 91.7441V91.7539C16.1475 92.2259 16.0417 92.6442 15.8301 93.0088C15.6217 93.3701 15.3337 93.6533 14.9658 93.8584C14.598 94.0635 14.1748 94.166 13.6963 94.166ZM19.1357 90.3867C18.82 90.3867 18.5384 90.3135 18.291 90.167C18.0469 90.0205 17.8548 89.8252 17.7148 89.5811C17.5749 89.3337 17.5049 89.0602 17.5049 88.7607V88.751C17.5049 88.4515 17.5749 88.1797 17.7148 87.9355C17.8548 87.6882 18.0469 87.4912 18.291 87.3447C18.5384 87.1982 18.82 87.125 19.1357 87.125C19.4515 87.125 19.7314 87.1982 19.9756 87.3447C20.223 87.4912 20.4167 87.6882 20.5566 87.9355C20.6966 88.1797 20.7666 88.4515 20.7666 88.751V88.7607C20.7666 89.0602 20.695 89.3337 20.5518 89.5811C20.4118 89.8252 20.2197 90.0205 19.9756 90.167C19.7314 90.3135 19.4515 90.3867 19.1357 90.3867ZM19.1357 89.7031C19.318 89.7031 19.4759 89.6608 19.6094 89.5762C19.7428 89.4883 19.847 89.3743 19.9219 89.2344C19.9967 89.0911 20.0342 88.9333 20.0342 88.7607V88.751C20.0342 88.5752 19.9967 88.4173 19.9219 88.2773C19.847 88.1341 19.7412 88.0202 19.6045 87.9355C19.471 87.8509 19.3148 87.8086 19.1357 87.8086C18.9535 87.8086 18.7939 87.8509 18.6572 87.9355C18.5238 88.0202 18.4196 88.1341 18.3447 88.2773C18.2731 88.4173 18.2373 88.5752 18.2373 88.751V88.7607C18.2373 88.9333 18.2731 89.0911 18.3447 89.2344C18.4196 89.3743 18.5238 89.4883 18.6572 89.5762C18.7939 89.6608 18.9535 89.7031 19.1357 89.7031ZM22.3926 94V86.9541H26.6699V87.7451H23.2715V90.167H26.3916V90.9482H23.2715V94H22.3926Z" fill="#C0C0C0"/>
<path d="M7.09082 44.7881C7.41309 44.7881 7.73047 44.8499 8.04297 44.9736C8.35872 45.0973 8.64355 45.2975 8.89746 45.5742C9.15462 45.8509 9.3597 46.2171 9.5127 46.6729C9.66569 47.1253 9.74219 47.6836 9.74219 48.3477V48.3574C9.74219 49.1582 9.63477 49.8434 9.41992 50.4131C9.20508 50.9795 8.89583 51.4141 8.49219 51.7168C8.08854 52.0163 7.60189 52.166 7.03223 52.166C6.63835 52.166 6.2819 52.0944 5.96289 51.9512C5.64714 51.8047 5.38346 51.6012 5.17188 51.3408C4.96029 51.0804 4.8138 50.7777 4.73242 50.4326L4.71777 50.3691H5.60156L5.62109 50.4229C5.69271 50.6182 5.79362 50.7874 5.92383 50.9307C6.05729 51.0739 6.2168 51.1846 6.40234 51.2627C6.59115 51.3408 6.80436 51.3799 7.04199 51.3799C7.46842 51.3799 7.8151 51.2562 8.08203 51.0088C8.34896 50.7581 8.54753 50.4261 8.67773 50.0127C8.80794 49.5993 8.88118 49.1484 8.89746 48.6602C8.90072 48.6146 8.90234 48.5706 8.90234 48.5283C8.90234 48.4827 8.90234 48.4388 8.90234 48.3965L8.69238 47.2246C8.69238 46.9154 8.62077 46.6354 8.47754 46.3848C8.33757 46.1341 8.14714 45.9355 7.90625 45.7891C7.66862 45.6393 7.40007 45.5645 7.10059 45.5645C6.80762 45.5645 6.54069 45.6377 6.2998 45.7842C6.05892 45.9274 5.86686 46.1227 5.72363 46.3701C5.5804 46.6143 5.50879 46.8893 5.50879 47.1953V47.2051C5.50879 47.5176 5.57715 47.7959 5.71387 48.04C5.85059 48.2809 6.03776 48.4714 6.27539 48.6113C6.51302 48.748 6.7832 48.8164 7.08594 48.8164C7.39193 48.8164 7.66536 48.748 7.90625 48.6113C8.14714 48.4746 8.33757 48.2874 8.47754 48.0498C8.62077 47.8089 8.69238 47.5355 8.69238 47.2295V47.2246H8.98047V48.4941H8.80957C8.72493 48.6862 8.59473 48.8652 8.41895 49.0312C8.24642 49.1973 8.03483 49.3307 7.78418 49.4316C7.53678 49.5326 7.25358 49.583 6.93457 49.583C6.49512 49.583 6.10124 49.4805 5.75293 49.2754C5.40462 49.0703 5.12956 48.7904 4.92773 48.4355C4.72591 48.0775 4.625 47.6738 4.625 47.2246V47.2148C4.625 46.7461 4.73079 46.3294 4.94238 45.9648C5.15723 45.597 5.4502 45.3089 5.82129 45.1006C6.19564 44.8923 6.61882 44.7881 7.09082 44.7881ZM13.5117 52.166C12.9909 52.166 12.5449 52.0163 12.1738 51.7168C11.806 51.4173 11.5228 50.9925 11.3242 50.4424C11.1257 49.889 11.0264 49.2347 11.0264 48.4795V48.4697C11.0264 47.7145 11.1257 47.0618 11.3242 46.5117C11.5228 45.9616 11.806 45.5368 12.1738 45.2373C12.5449 44.9378 12.9909 44.7881 13.5117 44.7881C14.0326 44.7881 14.4785 44.9378 14.8496 45.2373C15.2207 45.5368 15.5055 45.9616 15.7041 46.5117C15.9059 47.0618 16.0068 47.7145 16.0068 48.4697V48.4795C16.0068 49.2347 15.9059 49.889 15.7041 50.4424C15.5055 50.9925 15.2207 51.4173 14.8496 51.7168C14.4785 52.0163 14.0326 52.166 13.5117 52.166ZM13.5117 51.3994C13.8503 51.3994 14.1383 51.2806 14.376 51.043C14.6169 50.8053 14.8008 50.4684 14.9277 50.0322C15.0579 49.596 15.123 49.0785 15.123 48.4795V48.4697C15.123 47.8708 15.0579 47.3548 14.9277 46.9219C14.8008 46.4857 14.6169 46.1504 14.376 45.916C14.1383 45.6784 13.8503 45.5596 13.5117 45.5596C13.1764 45.5596 12.8883 45.6784 12.6475 45.916C12.4098 46.1504 12.2275 46.4857 12.1006 46.9219C11.9736 47.3548 11.9102 47.8708 11.9102 48.4697V48.4795C11.9102 49.0785 11.9736 49.596 12.1006 50.0322C12.2275 50.4684 12.4098 50.8053 12.6475 51.043C12.8883 51.2806 13.1764 51.3994 13.5117 51.3994ZM18.9268 48.3867C18.611 48.3867 18.3294 48.3135 18.082 48.167C17.8379 48.0205 17.6458 47.8252 17.5059 47.5811C17.3659 47.3337 17.2959 47.0602 17.2959 46.7607V46.751C17.2959 46.4515 17.3659 46.1797 17.5059 45.9355C17.6458 45.6882 17.8379 45.4912 18.082 45.3447C18.3294 45.1982 18.611 45.125 18.9268 45.125C19.2425 45.125 19.5225 45.1982 19.7666 45.3447C20.014 45.4912 20.2077 45.6882 20.3477 45.9355C20.4876 46.1797 20.5576 46.4515 20.5576 46.751V46.7607C20.5576 47.0602 20.486 47.3337 20.3428 47.5811C20.2028 47.8252 20.0107 48.0205 19.7666 48.167C19.5225 48.3135 19.2425 48.3867 18.9268 48.3867ZM18.9268 47.7031C19.109 47.7031 19.2669 47.6608 19.4004 47.5762C19.5339 47.4883 19.638 47.3743 19.7129 47.2344C19.7878 47.0911 19.8252 46.9333 19.8252 46.7607V46.751C19.8252 46.5752 19.7878 46.4173 19.7129 46.2773C19.638 46.1341 19.5322 46.0202 19.3955 45.9355C19.262 45.8509 19.1058 45.8086 18.9268 45.8086C18.7445 45.8086 18.585 45.8509 18.4482 45.9355C18.3148 46.0202 18.2106 46.1341 18.1357 46.2773C18.0641 46.4173 18.0283 46.5752 18.0283 46.751V46.7607C18.0283 46.9333 18.0641 47.0911 18.1357 47.2344C18.2106 47.3743 18.3148 47.4883 18.4482 47.5762C18.585 47.6608 18.7445 47.7031 18.9268 47.7031ZM22.1836 52V44.9541H26.4609V45.7451H23.0625V48.167H26.1826V48.9482H23.0625V52H22.1836Z" fill="#C0C0C0"/>
<path d="M2.50977 10V3.93066H2.43164L0.639648 5.22949V4.30176L2.51465 2.9541H3.38867V10H2.50977ZM7.7832 10.166C7.26237 10.166 6.81641 10.0163 6.44531 9.7168C6.07747 9.41732 5.79427 8.99251 5.5957 8.44238C5.39714 7.889 5.29785 7.2347 5.29785 6.47949V6.46973C5.29785 5.71452 5.39714 5.06185 5.5957 4.51172C5.79427 3.96159 6.07747 3.53678 6.44531 3.2373C6.81641 2.93783 7.26237 2.78809 7.7832 2.78809C8.30404 2.78809 8.75 2.93783 9.12109 3.2373C9.49219 3.53678 9.77702 3.96159 9.97559 4.51172C10.1774 5.06185 10.2783 5.71452 10.2783 6.46973V6.47949C10.2783 7.2347 10.1774 7.889 9.97559 8.44238C9.77702 8.99251 9.49219 9.41732 9.12109 9.7168C8.75 10.0163 8.30404 10.166 7.7832 10.166ZM7.7832 9.39941C8.12174 9.39941 8.40983 9.2806 8.64746 9.04297C8.88835 8.80534 9.07227 8.46842 9.19922 8.03223C9.32943 7.59603 9.39453 7.07845 9.39453 6.47949V6.46973C9.39453 5.87077 9.32943 5.35482 9.19922 4.92188C9.07227 4.48568 8.88835 4.15039 8.64746 3.91602C8.40983 3.67839 8.12174 3.55957 7.7832 3.55957C7.44792 3.55957 7.15983 3.67839 6.91895 3.91602C6.68132 4.15039 6.49902 4.48568 6.37207 4.92188C6.24512 5.35482 6.18164 5.87077 6.18164 6.46973V6.47949C6.18164 7.07845 6.24512 7.59603 6.37207 8.03223C6.49902 8.46842 6.68132 8.80534 6.91895 9.04297C7.15983 9.2806 7.44792 9.39941 7.7832 9.39941ZM14.0381 10.166C13.6019 10.166 13.2129 10.0798 12.8711 9.90723C12.5293 9.7347 12.2542 9.50033 12.0459 9.2041C11.8408 8.90462 11.7204 8.56771 11.6846 8.19336L11.6797 8.13965H12.5244L12.5293 8.17871C12.5586 8.40332 12.64 8.6084 12.7734 8.79395C12.9102 8.97624 13.0876 9.12109 13.3057 9.22852C13.527 9.33594 13.7744 9.38965 14.0479 9.38965C14.3604 9.38965 14.6354 9.32129 14.873 9.18457C15.1107 9.0446 15.2962 8.85254 15.4297 8.6084C15.5632 8.36426 15.6299 8.08431 15.6299 7.76855V7.75879C15.6299 7.44629 15.5615 7.1696 15.4248 6.92871C15.2913 6.68457 15.1074 6.49414 14.873 6.35742C14.6387 6.2207 14.3685 6.15234 14.0625 6.15234C13.8281 6.15234 13.6117 6.18815 13.4131 6.25977C13.2178 6.33138 13.0436 6.4388 12.8906 6.58203C12.8288 6.64062 12.7702 6.7041 12.7148 6.77246C12.6628 6.84082 12.6139 6.91732 12.5684 7.00195H11.8066L12.1777 2.9541H16.0986V3.74023H12.8711L12.6318 6.12305H12.71C12.8141 5.96354 12.9427 5.83008 13.0957 5.72266C13.2487 5.61523 13.4196 5.53385 13.6084 5.47852C13.8005 5.41992 14.0023 5.39062 14.2139 5.39062C14.6566 5.39062 15.0488 5.49316 15.3906 5.69824C15.7324 5.90007 16.001 6.17839 16.1963 6.5332C16.3916 6.88477 16.4893 7.28841 16.4893 7.74414V7.75391C16.4893 8.22591 16.3835 8.64421 16.1719 9.00879C15.9635 9.37012 15.6755 9.65332 15.3076 9.8584C14.9398 10.0635 14.5166 10.166 14.0381 10.166ZM19.4775 6.38672C19.1618 6.38672 18.8802 6.31348 18.6328 6.16699C18.3887 6.02051 18.1966 5.8252 18.0566 5.58105C17.9167 5.33366 17.8467 5.06022 17.8467 4.76074V4.75098C17.8467 4.4515 17.9167 4.17969 18.0566 3.93555C18.1966 3.68815 18.3887 3.49121 18.6328 3.34473C18.8802 3.19824 19.1618 3.125 19.4775 3.125C19.7933 3.125 20.0732 3.19824 20.3174 3.34473C20.5648 3.49121 20.7585 3.68815 20.8984 3.93555C21.0384 4.17969 21.1084 4.4515 21.1084 4.75098V4.76074C21.1084 5.06022 21.0368 5.33366 20.8936 5.58105C20.7536 5.8252 20.5615 6.02051 20.3174 6.16699C20.0732 6.31348 19.7933 6.38672 19.4775 6.38672ZM19.4775 5.70312C19.6598 5.70312 19.8177 5.66081 19.9512 5.57617C20.0846 5.48828 20.1888 5.37435 20.2637 5.23438C20.3385 5.09115 20.376 4.93327 20.376 4.76074V4.75098C20.376 4.5752 20.3385 4.41732 20.2637 4.27734C20.1888 4.13411 20.083 4.02018 19.9463 3.93555C19.8128 3.85091 19.6566 3.80859 19.4775 3.80859C19.2952 3.80859 19.1357 3.85091 18.999 3.93555C18.8656 4.02018 18.7614 4.13411 18.6865 4.27734C18.6149 4.41732 18.5791 4.5752 18.5791 4.75098V4.76074C18.5791 4.93327 18.6149 5.09115 18.6865 5.23438C18.7614 5.37435 18.8656 5.48828 18.999 5.57617C19.1357 5.66081 19.2952 5.70312 19.4775 5.70312ZM22.7344 10V2.9541H27.0117V3.74512H23.6133V6.16699H26.7334V6.94824H23.6133V10H22.7344Z" fill="#C0C0C0"/>
<g filter="url(#filter0_d_60_444)">
<circle cx="677" cy="110" r="10" fill="#81F5FF"/>
<circle cx="677" cy="110" r="8.5" stroke="#F5F5F5" stroke-width="3"/>
</g>
<circle cx="68" cy="89" r="4" fill="#81F5FF"/>
<circle cx="190" cy="110" r="4" fill="#81F5FF"/>
<circle cx="314" cy="89" r="4" fill="#81F5FF"/>
<circle cx="435" cy="127" r="4" fill="#81F5FF"/>
<circle cx="551" cy="130" r="4" fill="#81F5FF"/>
<circle cx="799" cy="118" r="4" fill="#81F5FF"/>
<line x1="676.25" y1="264.002" x2="676.25" y2="120.998" stroke="url(#paint2_linear_60_444)" stroke-width="0.5" stroke-dasharray="1 1"/>
</g>
<defs>
<filter id="filter0_d_60_444" x="658" y="94" width="38" height="38" filterUnits="userSpaceOnUse" color-interpolation-filters="sRGB">
<feFlood flood-opacity="0" result="BackgroundImageFix"/>
<feColorMatrix in="SourceAlpha" type="matrix" values="0 0 0 0 0 0 0 0 0 0 0 0 0 0 0 0 0 0 127 0" result="hardAlpha"/>
<feOffset dy="3"/>
<feGaussianBlur stdDeviation="4.5"/>
<feComposite in2="hardAlpha" operator="out"/>
<feColorMatrix type="matrix" values="0 0 0 0 0.505882 0 0 0 0 0.960784 0 0 0 0 1 0 0 0 0.5 0"/>
<feBlend mode="normal" in2="BackgroundImageFix" result="effect1_dropShadow_60_444"/>
<feBlend mode="normal" in="SourceGraphic" in2="effect1_dropShadow_60_444" result="shape"/>
</filter>
<linearGradient id="paint0_linear_60_444" x1="435.865" y1="138" x2="435.865" y2="264" gradientUnits="userSpaceOnUse">
<stop stop-color="#F4FF81" stop-opacity="0.2"/>
<stop offset="1" stop-color="#F4FF81" stop-opacity="0.05"/>
</linearGradient>
<linearGradient id="paint1_linear_60_444" x1="435.395" y1="98.0872" x2="435.395" y2="264" gradientUnits="userSpaceOnUse">
<stop stop-color="#81F5FF" stop-opacity="0.3"/>
<stop offset="1" stop-color="#81F5FF" stop-opacity="0.05"/>
</linearGradient>
<linearGradient id="paint2_linear_60_444" x1="676" y1="162.5" x2="676" y2="262" gradientUnits="userSpaceOnUse">
<stop stop-color="#C0C0C0"/>
<stop offset="1" stop-color="#C0C0C0" stop-opacity="0"/>
</linearGradient>
<clipPath id="clip0_60_444">
<rect width="830" height="336" fill="white"/>
</clipPath>
</defs>
</svg>
