                <svg xmlns="http://www.w3.org/2000/svg" width="36" height="36" viewBox="0 0 36 36" fill="none">
                    <path fill-rule="evenodd" clip-rule="evenodd"
                        d="M18 5.625C12.786 5.625 8.625 9.7009 8.625 14.6489C8.625 17.6558 9.85639 20.249 12.053 21.864C12.5371 22.22 12.9513 22.7508 13.1099 23.4243C13.2401 23.977 13.3891 24.6505 13.5367 25.3643H16.875V23.7406C16.875 23.5266 16.9361 23.317 17.051 23.1364L18.2537 21.2474L15.5552 19.1281C15.1003 18.7709 14.9904 18.127 15.301 17.6391L17.051 14.8905C17.3847 14.3663 18.0801 14.212 18.6042 14.5457C19.1283 14.8794 19.2827 15.5747 18.949 16.0988L17.7463 17.9879L20.4448 20.1072C20.8997 20.4644 21.0096 21.1083 20.699 21.5962L19.125 24.0684V25.3643H22.4633C22.6109 24.6505 22.7599 23.977 22.8901 23.4243C23.0487 22.7508 23.4629 22.22 23.947 21.864C26.1436 20.249 27.375 17.6558 27.375 14.6489C27.375 9.7009 23.214 5.625 18 5.625ZM22.0331 27.6143H13.9669C14.1325 28.5707 14.2625 29.4764 14.3018 30.1266C14.3432 30.8112 14.8549 31.4248 15.6093 31.5878L15.9033 31.6513C17.2839 31.9496 18.7161 31.9496 20.0967 31.6513L20.3907 31.5878C21.1451 31.4248 21.6568 30.8112 21.6982 30.1266C21.7375 29.4764 21.8675 28.5707 22.0331 27.6143ZM6.375 14.6489C6.375 8.38674 11.6161 3.375 18 3.375C24.3839 3.375 29.625 8.38674 29.625 14.6489C29.625 18.2847 28.1196 21.5889 25.2798 23.6768C25.1503 23.772 25.0961 23.8723 25.0801 23.9401C24.9026 24.6941 24.6862 25.692 24.489 26.7044C24.2148 28.1118 23.9916 29.4769 23.9441 30.2625C23.839 31.9998 22.5609 33.4208 20.8658 33.787L20.5719 33.8505C18.8781 34.2165 17.1219 34.2165 15.4281 33.8505L15.1342 33.787C13.4391 33.4208 12.161 31.9998 12.0559 30.2625C12.0084 29.4769 11.7852 28.1118 11.511 26.7044C11.3138 25.692 11.0974 24.6941 10.9199 23.9401C10.9039 23.8723 10.8497 23.772 10.7202 23.6768C7.88035 21.5889 6.375 18.2847 6.375 14.6489Z"
                        fill="#F4FF81" />
                </svg>