<svg xmlns="http://www.w3.org/2000/svg" width="36" height="36" viewBox="0 0 36 36" fill="none">
  <path fill-rule="evenodd" clip-rule="evenodd" d="M6.35411 14.646L9.67083 12.9877L12.1195 17.885L9.09522 26.9579C9.40047 27.1828 9.72283 27.4007 10.0598 27.6096C12.1017 23.9335 13.8456 22.5001 17.25 22.5001C21.0325 22.5001 24.2622 24.8226 25.2151 28.0328C25.714 27.759 26.1877 27.4647 26.6294 27.1556C26.0567 26.4381 25.5886 25.6617 25.1946 24.8098C24.7693 23.8902 24.6611 23.569 24.0461 21.5794C23.1408 18.6509 22.4799 18.0001 19.5 18.0001H18C15.6716 18.0001 13.5 15.8285 13.5 13.5001C13.5 11.6886 12.1081 10.3092 8.97764 9.39896L6.35411 14.646ZM8.8805 18.1152L6.72629 24.5778C6.2613 23.8737 6.00001 23.1662 6.00001 22.5001H3.00001C3.00001 27.7122 10.7738 33.0001 18 33.0001C25.2262 33.0001 33 27.7122 33 22.5001H30C30 23.3433 29.5813 24.253 28.8606 25.138C28.4936 24.6546 28.1859 24.1309 27.9174 23.5504C27.5725 22.8047 27.4796 22.5285 26.9123 20.6934C26.6615 19.8822 26.3947 19.168 26.0923 18.5442C28.1288 17.6321 30.0958 17.8668 32.168 19.2482L33.8321 16.752C30.6653 14.6409 27.374 14.4378 24.1832 16.1427C23.0741 15.3542 21.5951 15.0001 19.5 15.0001H18C17.3284 15.0001 16.5 14.1717 16.5 13.5001C16.5 9.62323 13.412 7.1528 7.79418 6.02924L6.00001 5.67041V8.64601L2.67487 15.2963L5.70383 18.3253L8.32919 17.0126L8.8805 18.1152ZM12.7472 28.9487C14.4134 29.599 16.2294 30.0001 18 30.0001C19.4816 30.0001 20.9949 29.7192 22.4257 29.2466C22.0082 27.1483 19.8786 25.5001 17.25 25.5001C15.2978 25.5001 14.2204 26.329 12.7472 28.9487Z" fill="#F4FF81"/>
</svg>